# Knight model for Tabletop Simulator: french_red_knight
mtllib french_red_knight.mtl
o french_red_knight
usemtl french_red_knight
v 0.22000 0.00000 0.00000
v 0.20923 0.00000 0.06798
v 0.20923 0.10000 0.06798
v 0.22000 0.10000 0.00000
v 0.20923 0.00000 0.06798
v 0.17798 0.00000 0.12931
v 0.17798 0.10000 0.12931
v 0.20923 0.10000 0.06798
v 0.17798 0.00000 0.12931
v 0.12931 0.00000 0.17798
v 0.12931 0.10000 0.17798
v 0.17798 0.10000 0.12931
v 0.12931 0.00000 0.17798
v 0.06798 0.00000 0.20923
v 0.06798 0.10000 0.20923
v 0.12931 0.10000 0.17798
v 0.06798 0.00000 0.20923
v 0.00000 0.00000 0.22000
v 0.00000 0.10000 0.22000
v 0.06798 0.10000 0.20923
v 0.00000 0.00000 0.22000
v -0.06798 0.00000 0.20923
v -0.06798 0.10000 0.20923
v 0.00000 0.10000 0.22000
v -0.06798 0.00000 0.20923
v -0.12931 0.00000 0.17798
v -0.12931 0.10000 0.17798
v -0.06798 0.10000 0.20923
v -0.12931 0.00000 0.17798
v -0.17798 0.00000 0.12931
v -0.17798 0.10000 0.12931
v -0.12931 0.10000 0.17798
v -0.17798 0.00000 0.12931
v -0.20923 0.00000 0.06798
v -0.20923 0.10000 0.06798
v -0.17798 0.10000 0.12931
v -0.20923 0.00000 0.06798
v -0.22000 0.00000 0.00000
v -0.22000 0.10000 0.00000
v -0.20923 0.10000 0.06798
v -0.22000 0.00000 0.00000
v -0.20923 0.00000 -0.06798
v -0.20923 0.10000 -0.06798
v -0.22000 0.10000 0.00000
v -0.20923 0.00000 -0.06798
v -0.17798 0.00000 -0.12931
v -0.17798 0.10000 -0.12931
v -0.20923 0.10000 -0.06798
v -0.17798 0.00000 -0.12931
v -0.12931 0.00000 -0.17798
v -0.12931 0.10000 -0.17798
v -0.17798 0.10000 -0.12931
v -0.12931 0.00000 -0.17798
v -0.06798 0.00000 -0.20923
v -0.06798 0.10000 -0.20923
v -0.12931 0.10000 -0.17798
v -0.06798 0.00000 -0.20923
v -0.00000 0.00000 -0.22000
v -0.00000 0.10000 -0.22000
v -0.06798 0.10000 -0.20923
v -0.00000 0.00000 -0.22000
v 0.06798 0.00000 -0.20923
v 0.06798 0.10000 -0.20923
v -0.00000 0.10000 -0.22000
v 0.06798 0.00000 -0.20923
v 0.12931 0.00000 -0.17798
v 0.12931 0.10000 -0.17798
v 0.06798 0.10000 -0.20923
v 0.12931 0.00000 -0.17798
v 0.17798 0.00000 -0.12931
v 0.17798 0.10000 -0.12931
v 0.12931 0.10000 -0.17798
v 0.17798 0.00000 -0.12931
v 0.20923 0.00000 -0.06798
v 0.20923 0.10000 -0.06798
v 0.17798 0.10000 -0.12931
v 0.20923 0.00000 -0.06798
v 0.22000 0.00000 -0.00000
v 0.22000 0.10000 -0.00000
v 0.20923 0.10000 -0.06798
v 0.20000 0.10000 0.00000
v 0.18794 0.10000 0.06840
v 0.18794 0.24000 0.06840
v 0.20000 0.24000 0.00000
v 0.18794 0.10000 0.06840
v 0.15321 0.10000 0.12856
v 0.15321 0.24000 0.12856
v 0.18794 0.24000 0.06840
v 0.15321 0.10000 0.12856
v 0.10000 0.10000 0.17321
v 0.10000 0.24000 0.17321
v 0.15321 0.24000 0.12856
v 0.10000 0.10000 0.17321
v 0.03473 0.10000 0.19696
v 0.03473 0.24000 0.19696
v 0.10000 0.24000 0.17321
v 0.03473 0.10000 0.19696
v -0.03473 0.10000 0.19696
v -0.03473 0.24000 0.19696
v 0.03473 0.24000 0.19696
v -0.03473 0.10000 0.19696
v -0.10000 0.10000 0.17321
v -0.10000 0.24000 0.17321
v -0.03473 0.24000 0.19696
v -0.10000 0.10000 0.17321
v -0.15321 0.10000 0.12856
v -0.15321 0.24000 0.12856
v -0.10000 0.24000 0.17321
v -0.15321 0.10000 0.12856
v -0.18794 0.10000 0.06840
v -0.18794 0.24000 0.06840
v -0.15321 0.24000 0.12856
v -0.18794 0.10000 0.06840
v -0.20000 0.10000 0.00000
v -0.20000 0.24000 0.00000
v -0.18794 0.24000 0.06840
v -0.20000 0.10000 0.00000
v -0.18794 0.10000 -0.06840
v -0.18794 0.24000 -0.06840
v -0.20000 0.24000 0.00000
v -0.18794 0.10000 -0.06840
v -0.15321 0.10000 -0.12856
v -0.15321 0.24000 -0.12856
v -0.18794 0.24000 -0.06840
v -0.15321 0.10000 -0.12856
v -0.10000 0.10000 -0.17321
v -0.10000 0.24000 -0.17321
v -0.15321 0.24000 -0.12856
v -0.10000 0.10000 -0.17321
v -0.03473 0.10000 -0.19696
v -0.03473 0.24000 -0.19696
v -0.10000 0.24000 -0.17321
v -0.03473 0.10000 -0.19696
v 0.03473 0.10000 -0.19696
v 0.03473 0.24000 -0.19696
v -0.03473 0.24000 -0.19696
v 0.03473 0.10000 -0.19696
v 0.10000 0.10000 -0.17321
v 0.10000 0.24000 -0.17321
v 0.03473 0.24000 -0.19696
v 0.10000 0.10000 -0.17321
v 0.15321 0.10000 -0.12856
v 0.15321 0.24000 -0.12856
v 0.10000 0.24000 -0.17321
v 0.15321 0.10000 -0.12856
v 0.18794 0.10000 -0.06840
v 0.18794 0.24000 -0.06840
v 0.15321 0.24000 -0.12856
v 0.18794 0.10000 -0.06840
v 0.20000 0.10000 -0.00000
v 0.20000 0.24000 -0.00000
v 0.18794 0.24000 -0.06840
v 0.16000 0.24000 0.00000
v 0.14782 0.24000 0.06123
v 0.14782 0.36000 0.06123
v 0.16000 0.36000 0.00000
v 0.14782 0.24000 0.06123
v 0.11314 0.24000 0.11314
v 0.11314 0.36000 0.11314
v 0.14782 0.36000 0.06123
v 0.11314 0.24000 0.11314
v 0.06123 0.24000 0.14782
v 0.06123 0.36000 0.14782
v 0.11314 0.36000 0.11314
v 0.06123 0.24000 0.14782
v 0.00000 0.24000 0.16000
v 0.00000 0.36000 0.16000
v 0.06123 0.36000 0.14782
v 0.00000 0.24000 0.16000
v -0.06123 0.24000 0.14782
v -0.06123 0.36000 0.14782
v 0.00000 0.36000 0.16000
v -0.06123 0.24000 0.14782
v -0.11314 0.24000 0.11314
v -0.11314 0.36000 0.11314
v -0.06123 0.36000 0.14782
v -0.11314 0.24000 0.11314
v -0.14782 0.24000 0.06123
v -0.14782 0.36000 0.06123
v -0.11314 0.36000 0.11314
v -0.14782 0.24000 0.06123
v -0.16000 0.24000 0.00000
v -0.16000 0.36000 0.00000
v -0.14782 0.36000 0.06123
v -0.16000 0.24000 0.00000
v -0.14782 0.24000 -0.06123
v -0.14782 0.36000 -0.06123
v -0.16000 0.36000 0.00000
v -0.14782 0.24000 -0.06123
v -0.11314 0.24000 -0.11314
v -0.11314 0.36000 -0.11314
v -0.14782 0.36000 -0.06123
v -0.11314 0.24000 -0.11314
v -0.06123 0.24000 -0.14782
v -0.06123 0.36000 -0.14782
v -0.11314 0.36000 -0.11314
v -0.06123 0.24000 -0.14782
v -0.00000 0.24000 -0.16000
v -0.00000 0.36000 -0.16000
v -0.06123 0.36000 -0.14782
v -0.00000 0.24000 -0.16000
v 0.06123 0.24000 -0.14782
v 0.06123 0.36000 -0.14782
v -0.00000 0.36000 -0.16000
v 0.06123 0.24000 -0.14782
v 0.11314 0.24000 -0.11314
v 0.11314 0.36000 -0.11314
v 0.06123 0.36000 -0.14782
v 0.11314 0.24000 -0.11314
v 0.14782 0.24000 -0.06123
v 0.14782 0.36000 -0.06123
v 0.11314 0.36000 -0.11314
v 0.14782 0.24000 -0.06123
v 0.16000 0.24000 -0.00000
v 0.16000 0.36000 -0.00000
v 0.14782 0.36000 -0.06123
v 0.12000 0.36000 0.00000
v 0.10812 0.36000 0.05207
v 0.10812 0.46000 0.05207
v 0.12000 0.46000 0.00000
v 0.10812 0.36000 0.05207
v 0.07482 0.36000 0.09382
v 0.07482 0.46000 0.09382
v 0.10812 0.46000 0.05207
v 0.07482 0.36000 0.09382
v 0.02670 0.36000 0.11699
v 0.02670 0.46000 0.11699
v 0.07482 0.46000 0.09382
v 0.02670 0.36000 0.11699
v -0.02670 0.36000 0.11699
v -0.02670 0.46000 0.11699
v 0.02670 0.46000 0.11699
v -0.02670 0.36000 0.11699
v -0.07482 0.36000 0.09382
v -0.07482 0.46000 0.09382
v -0.02670 0.46000 0.11699
v -0.07482 0.36000 0.09382
v -0.10812 0.36000 0.05207
v -0.10812 0.46000 0.05207
v -0.07482 0.46000 0.09382
v -0.10812 0.36000 0.05207
v -0.12000 0.36000 0.00000
v -0.12000 0.46000 0.00000
v -0.10812 0.46000 0.05207
v -0.12000 0.36000 0.00000
v -0.10812 0.36000 -0.05207
v -0.10812 0.46000 -0.05207
v -0.12000 0.46000 0.00000
v -0.10812 0.36000 -0.05207
v -0.07482 0.36000 -0.09382
v -0.07482 0.46000 -0.09382
v -0.10812 0.46000 -0.05207
v -0.07482 0.36000 -0.09382
v -0.02670 0.36000 -0.11699
v -0.02670 0.46000 -0.11699
v -0.07482 0.46000 -0.09382
v -0.02670 0.36000 -0.11699
v 0.02670 0.36000 -0.11699
v 0.02670 0.46000 -0.11699
v -0.02670 0.46000 -0.11699
v 0.02670 0.36000 -0.11699
v 0.07482 0.36000 -0.09382
v 0.07482 0.46000 -0.09382
v 0.02670 0.46000 -0.11699
v 0.07482 0.36000 -0.09382
v 0.10812 0.36000 -0.05207
v 0.10812 0.46000 -0.05207
v 0.07482 0.46000 -0.09382
v 0.10812 0.36000 -0.05207
v 0.12000 0.36000 -0.00000
v 0.12000 0.46000 -0.00000
v 0.10812 0.46000 -0.05207
v 0.00000 0.67000 0.00000
v 0.04975 0.66010 0.00000
v 0.04596 0.66010 0.01904
v 0.00000 0.67000 0.00000
v 0.04596 0.66010 0.01904
v 0.03518 0.66010 0.03518
v 0.00000 0.67000 0.00000
v 0.03518 0.66010 0.03518
v 0.01904 0.66010 0.04596
v 0.00000 0.67000 0.00000
v 0.01904 0.66010 0.04596
v 0.00000 0.66010 0.04975
v 0.00000 0.67000 0.00000
v 0.00000 0.66010 0.04975
v -0.01904 0.66010 0.04596
v 0.00000 0.67000 0.00000
v -0.01904 0.66010 0.04596
v -0.03518 0.66010 0.03518
v 0.00000 0.67000 0.00000
v -0.03518 0.66010 0.03518
v -0.04596 0.66010 0.01904
v 0.00000 0.67000 0.00000
v -0.04596 0.66010 0.01904
v -0.04975 0.66010 0.00000
v 0.00000 0.67000 0.00000
v -0.04975 0.66010 0.00000
v -0.04596 0.66010 -0.01904
v 0.00000 0.67000 0.00000
v -0.04596 0.66010 -0.01904
v -0.03518 0.66010 -0.03518
v 0.00000 0.67000 0.00000
v -0.03518 0.66010 -0.03518
v -0.01904 0.66010 -0.04596
v 0.00000 0.67000 0.00000
v -0.01904 0.66010 -0.04596
v -0.00000 0.66010 -0.04975
v 0.00000 0.67000 0.00000
v -0.00000 0.66010 -0.04975
v 0.01904 0.66010 -0.04596
v 0.00000 0.67000 0.00000
v 0.01904 0.66010 -0.04596
v 0.03518 0.66010 -0.03518
v 0.00000 0.67000 0.00000
v 0.03518 0.66010 -0.03518
v 0.04596 0.66010 -0.01904
v 0.00000 0.67000 0.00000
v 0.04596 0.66010 -0.01904
v 0.04975 0.66010 -0.00000
v 0.04975 0.66010 0.00000
v 0.04596 0.66010 0.01904
v 0.09192 0.63192 0.00000
v 0.08493 0.63192 0.03518
v 0.04596 0.66010 0.01904
v 0.03518 0.66010 0.03518
v 0.08493 0.63192 0.03518
v 0.06500 0.63192 0.06500
v 0.03518 0.66010 0.03518
v 0.01904 0.66010 0.04596
v 0.06500 0.63192 0.06500
v 0.03518 0.63192 0.08493
v 0.01904 0.66010 0.04596
v 0.00000 0.66010 0.04975
v 0.03518 0.63192 0.08493
v 0.00000 0.63192 0.09192
v 0.00000 0.66010 0.04975
v -0.01904 0.66010 0.04596
v 0.00000 0.63192 0.09192
v -0.03518 0.63192 0.08493
v -0.01904 0.66010 0.04596
v -0.03518 0.66010 0.03518
v -0.03518 0.63192 0.08493
v -0.06500 0.63192 0.06500
v -0.03518 0.66010 0.03518
v -0.04596 0.66010 0.01904
v -0.06500 0.63192 0.06500
v -0.08493 0.63192 0.03518
v -0.04596 0.66010 0.01904
v -0.04975 0.66010 0.00000
v -0.08493 0.63192 0.03518
v -0.09192 0.63192 0.00000
v -0.04975 0.66010 0.00000
v -0.04596 0.66010 -0.01904
v -0.09192 0.63192 0.00000
v -0.08493 0.63192 -0.03518
v -0.04596 0.66010 -0.01904
v -0.03518 0.66010 -0.03518
v -0.08493 0.63192 -0.03518
v -0.06500 0.63192 -0.06500
v -0.03518 0.66010 -0.03518
v -0.01904 0.66010 -0.04596
v -0.06500 0.63192 -0.06500
v -0.03518 0.63192 -0.08493
v -0.01904 0.66010 -0.04596
v -0.00000 0.66010 -0.04975
v -0.03518 0.63192 -0.08493
v -0.00000 0.63192 -0.09192
v -0.00000 0.66010 -0.04975
v 0.01904 0.66010 -0.04596
v -0.00000 0.63192 -0.09192
v 0.03518 0.63192 -0.08493
v 0.01904 0.66010 -0.04596
v 0.03518 0.66010 -0.03518
v 0.03518 0.63192 -0.08493
v 0.06500 0.63192 -0.06500
v 0.03518 0.66010 -0.03518
v 0.04596 0.66010 -0.01904
v 0.06500 0.63192 -0.06500
v 0.08493 0.63192 -0.03518
v 0.04596 0.66010 -0.01904
v 0.04975 0.66010 -0.00000
v 0.08493 0.63192 -0.03518
v 0.09192 0.63192 -0.00000
v 0.09192 0.63192 0.00000
v 0.08493 0.63192 0.03518
v 0.12010 0.58975 0.00000
v 0.11096 0.58975 0.04596
v 0.08493 0.63192 0.03518
v 0.06500 0.63192 0.06500
v 0.11096 0.58975 0.04596
v 0.08493 0.58975 0.08493
v 0.06500 0.63192 0.06500
v 0.03518 0.63192 0.08493
v 0.08493 0.58975 0.08493
v 0.04596 0.58975 0.11096
v 0.03518 0.63192 0.08493
v 0.00000 0.63192 0.09192
v 0.04596 0.58975 0.11096
v 0.00000 0.58975 0.12010
v 0.00000 0.63192 0.09192
v -0.03518 0.63192 0.08493
v 0.00000 0.58975 0.12010
v -0.04596 0.58975 0.11096
v -0.03518 0.63192 0.08493
v -0.06500 0.63192 0.06500
v -0.04596 0.58975 0.11096
v -0.08493 0.58975 0.08493
v -0.06500 0.63192 0.06500
v -0.08493 0.63192 0.03518
v -0.08493 0.58975 0.08493
v -0.11096 0.58975 0.04596
v -0.08493 0.63192 0.03518
v -0.09192 0.63192 0.00000
v -0.11096 0.58975 0.04596
v -0.12010 0.58975 0.00000
v -0.09192 0.63192 0.00000
v -0.08493 0.63192 -0.03518
v -0.12010 0.58975 0.00000
v -0.11096 0.58975 -0.04596
v -0.08493 0.63192 -0.03518
v -0.06500 0.63192 -0.06500
v -0.11096 0.58975 -0.04596
v -0.08493 0.58975 -0.08493
v -0.06500 0.63192 -0.06500
v -0.03518 0.63192 -0.08493
v -0.08493 0.58975 -0.08493
v -0.04596 0.58975 -0.11096
v -0.03518 0.63192 -0.08493
v -0.00000 0.63192 -0.09192
v -0.04596 0.58975 -0.11096
v -0.00000 0.58975 -0.12010
v -0.00000 0.63192 -0.09192
v 0.03518 0.63192 -0.08493
v -0.00000 0.58975 -0.12010
v 0.04596 0.58975 -0.11096
v 0.03518 0.63192 -0.08493
v 0.06500 0.63192 -0.06500
v 0.04596 0.58975 -0.11096
v 0.08493 0.58975 -0.08493
v 0.06500 0.63192 -0.06500
v 0.08493 0.63192 -0.03518
v 0.08493 0.58975 -0.08493
v 0.11096 0.58975 -0.04596
v 0.08493 0.63192 -0.03518
v 0.09192 0.63192 -0.00000
v 0.11096 0.58975 -0.04596
v 0.12010 0.58975 -0.00000
v 0.12010 0.58975 0.00000
v 0.11096 0.58975 0.04596
v 0.13000 0.54000 0.00000
v 0.12010 0.54000 0.04975
v 0.11096 0.58975 0.04596
v 0.08493 0.58975 0.08493
v 0.12010 0.54000 0.04975
v 0.09192 0.54000 0.09192
v 0.08493 0.58975 0.08493
v 0.04596 0.58975 0.11096
v 0.09192 0.54000 0.09192
v 0.04975 0.54000 0.12010
v 0.04596 0.58975 0.11096
v 0.00000 0.58975 0.12010
v 0.04975 0.54000 0.12010
v 0.00000 0.54000 0.13000
v 0.00000 0.58975 0.12010
v -0.04596 0.58975 0.11096
v 0.00000 0.54000 0.13000
v -0.04975 0.54000 0.12010
v -0.04596 0.58975 0.11096
v -0.08493 0.58975 0.08493
v -0.04975 0.54000 0.12010
v -0.09192 0.54000 0.09192
v -0.08493 0.58975 0.08493
v -0.11096 0.58975 0.04596
v -0.09192 0.54000 0.09192
v -0.12010 0.54000 0.04975
v -0.11096 0.58975 0.04596
v -0.12010 0.58975 0.00000
v -0.12010 0.54000 0.04975
v -0.13000 0.54000 0.00000
v -0.12010 0.58975 0.00000
v -0.11096 0.58975 -0.04596
v -0.13000 0.54000 0.00000
v -0.12010 0.54000 -0.04975
v -0.11096 0.58975 -0.04596
v -0.08493 0.58975 -0.08493
v -0.12010 0.54000 -0.04975
v -0.09192 0.54000 -0.09192
v -0.08493 0.58975 -0.08493
v -0.04596 0.58975 -0.11096
v -0.09192 0.54000 -0.09192
v -0.04975 0.54000 -0.12010
v -0.04596 0.58975 -0.11096
v -0.00000 0.58975 -0.12010
v -0.04975 0.54000 -0.12010
v -0.00000 0.54000 -0.13000
v -0.00000 0.58975 -0.12010
v 0.04596 0.58975 -0.11096
v -0.00000 0.54000 -0.13000
v 0.04975 0.54000 -0.12010
v 0.04596 0.58975 -0.11096
v 0.08493 0.58975 -0.08493
v 0.04975 0.54000 -0.12010
v 0.09192 0.54000 -0.09192
v 0.08493 0.58975 -0.08493
v 0.11096 0.58975 -0.04596
v 0.09192 0.54000 -0.09192
v 0.12010 0.54000 -0.04975
v 0.11096 0.58975 -0.04596
v 0.12010 0.58975 -0.00000
v 0.12010 0.54000 -0.04975
v 0.13000 0.54000 -0.00000
v 0.13000 0.54000 0.00000
v 0.12010 0.54000 0.04975
v 0.12010 0.49025 0.00000
v 0.11096 0.49025 0.04596
v 0.12010 0.54000 0.04975
v 0.09192 0.54000 0.09192
v 0.11096 0.49025 0.04596
v 0.08493 0.49025 0.08493
v 0.09192 0.54000 0.09192
v 0.04975 0.54000 0.12010
v 0.08493 0.49025 0.08493
v 0.04596 0.49025 0.11096
v 0.04975 0.54000 0.12010
v 0.00000 0.54000 0.13000
v 0.04596 0.49025 0.11096
v 0.00000 0.49025 0.12010
v 0.00000 0.54000 0.13000
v -0.04975 0.54000 0.12010
v 0.00000 0.49025 0.12010
v -0.04596 0.49025 0.11096
v -0.04975 0.54000 0.12010
v -0.09192 0.54000 0.09192
v -0.04596 0.49025 0.11096
v -0.08493 0.49025 0.08493
v -0.09192 0.54000 0.09192
v -0.12010 0.54000 0.04975
v -0.08493 0.49025 0.08493
v -0.11096 0.49025 0.04596
v -0.12010 0.54000 0.04975
v -0.13000 0.54000 0.00000
v -0.11096 0.49025 0.04596
v -0.12010 0.49025 0.00000
v -0.13000 0.54000 0.00000
v -0.12010 0.54000 -0.04975
v -0.12010 0.49025 0.00000
v -0.11096 0.49025 -0.04596
v -0.12010 0.54000 -0.04975
v -0.09192 0.54000 -0.09192
v -0.11096 0.49025 -0.04596
v -0.08493 0.49025 -0.08493
v -0.09192 0.54000 -0.09192
v -0.04975 0.54000 -0.12010
v -0.08493 0.49025 -0.08493
v -0.04596 0.49025 -0.11096
v -0.04975 0.54000 -0.12010
v -0.00000 0.54000 -0.13000
v -0.04596 0.49025 -0.11096
v -0.00000 0.49025 -0.12010
v -0.00000 0.54000 -0.13000
v 0.04975 0.54000 -0.12010
v -0.00000 0.49025 -0.12010
v 0.04596 0.49025 -0.11096
v 0.04975 0.54000 -0.12010
v 0.09192 0.54000 -0.09192
v 0.04596 0.49025 -0.11096
v 0.08493 0.49025 -0.08493
v 0.09192 0.54000 -0.09192
v 0.12010 0.54000 -0.04975
v 0.08493 0.49025 -0.08493
v 0.11096 0.49025 -0.04596
v 0.12010 0.54000 -0.04975
v 0.13000 0.54000 -0.00000
v 0.11096 0.49025 -0.04596
v 0.12010 0.49025 -0.00000
v 0.12010 0.49025 0.00000
v 0.11096 0.49025 0.04596
v 0.09192 0.44808 0.00000
v 0.08493 0.44808 0.03518
v 0.11096 0.49025 0.04596
v 0.08493 0.49025 0.08493
v 0.08493 0.44808 0.03518
v 0.06500 0.44808 0.06500
v 0.08493 0.49025 0.08493
v 0.04596 0.49025 0.11096
v 0.06500 0.44808 0.06500
v 0.03518 0.44808 0.08493
v 0.04596 0.49025 0.11096
v 0.00000 0.49025 0.12010
v 0.03518 0.44808 0.08493
v 0.00000 0.44808 0.09192
v 0.00000 0.49025 0.12010
v -0.04596 0.49025 0.11096
v 0.00000 0.44808 0.09192
v -0.03518 0.44808 0.08493
v -0.04596 0.49025 0.11096
v -0.08493 0.49025 0.08493
v -0.03518 0.44808 0.08493
v -0.06500 0.44808 0.06500
v -0.08493 0.49025 0.08493
v -0.11096 0.49025 0.04596
v -0.06500 0.44808 0.06500
v -0.08493 0.44808 0.03518
v -0.11096 0.49025 0.04596
v -0.12010 0.49025 0.00000
v -0.08493 0.44808 0.03518
v -0.09192 0.44808 0.00000
v -0.12010 0.49025 0.00000
v -0.11096 0.49025 -0.04596
v -0.09192 0.44808 0.00000
v -0.08493 0.44808 -0.03518
v -0.11096 0.49025 -0.04596
v -0.08493 0.49025 -0.08493
v -0.08493 0.44808 -0.03518
v -0.06500 0.44808 -0.06500
v -0.08493 0.49025 -0.08493
v -0.04596 0.49025 -0.11096
v -0.06500 0.44808 -0.06500
v -0.03518 0.44808 -0.08493
v -0.04596 0.49025 -0.11096
v -0.00000 0.49025 -0.12010
v -0.03518 0.44808 -0.08493
v -0.00000 0.44808 -0.09192
v -0.00000 0.49025 -0.12010
v 0.04596 0.49025 -0.11096
v -0.00000 0.44808 -0.09192
v 0.03518 0.44808 -0.08493
v 0.04596 0.49025 -0.11096
v 0.08493 0.49025 -0.08493
v 0.03518 0.44808 -0.08493
v 0.06500 0.44808 -0.06500
v 0.08493 0.49025 -0.08493
v 0.11096 0.49025 -0.04596
v 0.06500 0.44808 -0.06500
v 0.08493 0.44808 -0.03518
v 0.11096 0.49025 -0.04596
v 0.12010 0.49025 -0.00000
v 0.08493 0.44808 -0.03518
v 0.09192 0.44808 -0.00000
v 0.09192 0.44808 0.00000
v 0.08493 0.44808 0.03518
v 0.04975 0.41990 0.00000
v 0.04596 0.41990 0.01904
v 0.08493 0.44808 0.03518
v 0.06500 0.44808 0.06500
v 0.04596 0.41990 0.01904
v 0.03518 0.41990 0.03518
v 0.06500 0.44808 0.06500
v 0.03518 0.44808 0.08493
v 0.03518 0.41990 0.03518
v 0.01904 0.41990 0.04596
v 0.03518 0.44808 0.08493
v 0.00000 0.44808 0.09192
v 0.01904 0.41990 0.04596
v 0.00000 0.41990 0.04975
v 0.00000 0.44808 0.09192
v -0.03518 0.44808 0.08493
v 0.00000 0.41990 0.04975
v -0.01904 0.41990 0.04596
v -0.03518 0.44808 0.08493
v -0.06500 0.44808 0.06500
v -0.01904 0.41990 0.04596
v -0.03518 0.41990 0.03518
v -0.06500 0.44808 0.06500
v -0.08493 0.44808 0.03518
v -0.03518 0.41990 0.03518
v -0.04596 0.41990 0.01904
v -0.08493 0.44808 0.03518
v -0.09192 0.44808 0.00000
v -0.04596 0.41990 0.01904
v -0.04975 0.41990 0.00000
v -0.09192 0.44808 0.00000
v -0.08493 0.44808 -0.03518
v -0.04975 0.41990 0.00000
v -0.04596 0.41990 -0.01904
v -0.08493 0.44808 -0.03518
v -0.06500 0.44808 -0.06500
v -0.04596 0.41990 -0.01904
v -0.03518 0.41990 -0.03518
v -0.06500 0.44808 -0.06500
v -0.03518 0.44808 -0.08493
v -0.03518 0.41990 -0.03518
v -0.01904 0.41990 -0.04596
v -0.03518 0.44808 -0.08493
v -0.00000 0.44808 -0.09192
v -0.01904 0.41990 -0.04596
v -0.00000 0.41990 -0.04975
v -0.00000 0.44808 -0.09192
v 0.03518 0.44808 -0.08493
v -0.00000 0.41990 -0.04975
v 0.01904 0.41990 -0.04596
v 0.03518 0.44808 -0.08493
v 0.06500 0.44808 -0.06500
v 0.01904 0.41990 -0.04596
v 0.03518 0.41990 -0.03518
v 0.06500 0.44808 -0.06500
v 0.08493 0.44808 -0.03518
v 0.03518 0.41990 -0.03518
v 0.04596 0.41990 -0.01904
v 0.08493 0.44808 -0.03518
v 0.09192 0.44808 -0.00000
v 0.04596 0.41990 -0.01904
v 0.04975 0.41990 -0.00000
v 0.00000 0.41000 0.00000
v 0.04975 0.41990 0.00000
v 0.04596 0.41990 0.01904
v 0.00000 0.41000 0.00000
v 0.04596 0.41990 0.01904
v 0.03518 0.41990 0.03518
v 0.00000 0.41000 0.00000
v 0.03518 0.41990 0.03518
v 0.01904 0.41990 0.04596
v 0.00000 0.41000 0.00000
v 0.01904 0.41990 0.04596
v 0.00000 0.41990 0.04975
v -0.00000 0.41000 0.00000
v 0.00000 0.41990 0.04975
v -0.01904 0.41990 0.04596
v -0.00000 0.41000 0.00000
v -0.01904 0.41990 0.04596
v -0.03518 0.41990 0.03518
v -0.00000 0.41000 0.00000
v -0.03518 0.41990 0.03518
v -0.04596 0.41990 0.01904
v -0.00000 0.41000 0.00000
v -0.04596 0.41990 0.01904
v -0.04975 0.41990 0.00000
v -0.00000 0.41000 -0.00000
v -0.04975 0.41990 0.00000
v -0.04596 0.41990 -0.01904
v -0.00000 0.41000 -0.00000
v -0.04596 0.41990 -0.01904
v -0.03518 0.41990 -0.03518
v -0.00000 0.41000 -0.00000
v -0.03518 0.41990 -0.03518
v -0.01904 0.41990 -0.04596
v -0.00000 0.41000 -0.00000
v -0.01904 0.41990 -0.04596
v -0.00000 0.41990 -0.04975
v 0.00000 0.41000 -0.00000
v -0.00000 0.41990 -0.04975
v 0.01904 0.41990 -0.04596
v 0.00000 0.41000 -0.00000
v 0.01904 0.41990 -0.04596
v 0.03518 0.41990 -0.03518
v 0.00000 0.41000 -0.00000
v 0.03518 0.41990 -0.03518
v 0.04596 0.41990 -0.01904
v 0.00000 0.41000 -0.00000
v 0.04596 0.41990 -0.01904
v 0.04975 0.41990 -0.00000
v -0.01500 0.49500 0.11000
v 0.01500 0.49500 0.11000
v 0.01500 0.54500 0.11000
v -0.01500 0.54500 0.11000
v -0.01500 0.49500 0.13000
v 0.01500 0.49500 0.13000
v 0.01500 0.54500 0.13000
v -0.01500 0.54500 0.13000
v 0.02500 0.62000 0.12000
v 0.01250 0.62000 0.08165
v 0.01250 0.70000 0.14165
v 0.02500 0.70000 0.06000
v 0.01250 0.62000 0.14165
v -0.01250 0.62000 0.08165
v -0.01250 0.70000 0.14165
v 0.01250 0.70000 0.08165
v -0.01250 0.62000 0.14165
v -0.02500 0.62000 0.06000
v -0.02500 0.70000 0.12000
v -0.01250 0.70000 0.08165
v -0.02500 0.62000 0.12000
v -0.01250 0.62000 0.03835
v -0.01250 0.70000 0.09835
v -0.02500 0.70000 0.06000
v -0.01250 0.62000 0.09835
v 0.01250 0.62000 0.03835
v 0.01250 0.70000 0.09835
v -0.01250 0.70000 0.03835
v 0.01250 0.62000 0.09835
v 0.02500 0.62000 0.06000
v 0.02500 0.70000 0.12000
v 0.01250 0.70000 0.03835
v -0.05000 0.17000 0.11750
v 0.05000 0.17000 0.11750
v 0.05000 0.31000 0.11750
v -0.05000 0.31000 0.11750
v -0.05000 0.17000 0.14250
v 0.05000 0.17000 0.14250
v 0.05000 0.31000 0.14250
v -0.05000 0.31000 0.14250
vt 0.00000 0.00000
vt 0.05000 0.00000
vt 0.05000 0.10000
vt 0.00000 0.10000
vt 0.05000 0.00000
vt 0.10000 0.00000
vt 0.10000 0.10000
vt 0.05000 0.10000
vt 0.10000 0.00000
vt 0.15000 0.00000
vt 0.15000 0.10000
vt 0.10000 0.10000
vt 0.15000 0.00000
vt 0.20000 0.00000
vt 0.20000 0.10000
vt 0.15000 0.10000
vt 0.20000 0.00000
vt 0.25000 0.00000
vt 0.25000 0.10000
vt 0.20000 0.10000
vt 0.25000 0.00000
vt 0.30000 0.00000
vt 0.30000 0.10000
vt 0.25000 0.10000
vt 0.30000 0.00000
vt 0.35000 0.00000
vt 0.35000 0.10000
vt 0.30000 0.10000
vt 0.35000 0.00000
vt 0.40000 0.00000
vt 0.40000 0.10000
vt 0.35000 0.10000
vt 0.40000 0.00000
vt 0.45000 0.00000
vt 0.45000 0.10000
vt 0.40000 0.10000
vt 0.45000 0.00000
vt 0.50000 0.00000
vt 0.50000 0.10000
vt 0.45000 0.10000
vt 0.50000 0.00000
vt 0.55000 0.00000
vt 0.55000 0.10000
vt 0.50000 0.10000
vt 0.55000 0.00000
vt 0.60000 0.00000
vt 0.60000 0.10000
vt 0.55000 0.10000
vt 0.60000 0.00000
vt 0.65000 0.00000
vt 0.65000 0.10000
vt 0.60000 0.10000
vt 0.65000 0.00000
vt 0.70000 0.00000
vt 0.70000 0.10000
vt 0.65000 0.10000
vt 0.70000 0.00000
vt 0.75000 0.00000
vt 0.75000 0.10000
vt 0.70000 0.10000
vt 0.75000 0.00000
vt 0.80000 0.00000
vt 0.80000 0.10000
vt 0.75000 0.10000
vt 0.80000 0.00000
vt 0.85000 0.00000
vt 0.85000 0.10000
vt 0.80000 0.10000
vt 0.85000 0.00000
vt 0.90000 0.00000
vt 0.90000 0.10000
vt 0.85000 0.10000
vt 0.90000 0.00000
vt 0.95000 0.00000
vt 0.95000 0.10000
vt 0.90000 0.10000
vt 0.95000 0.00000
vt 1.00000 0.00000
vt 1.00000 0.10000
vt 0.95000 0.10000
vt 0.00000 0.10000
vt 0.05556 0.10000
vt 0.05556 0.24000
vt 0.00000 0.24000
vt 0.05556 0.10000
vt 0.11111 0.10000
vt 0.11111 0.24000
vt 0.05556 0.24000
vt 0.11111 0.10000
vt 0.16667 0.10000
vt 0.16667 0.24000
vt 0.11111 0.24000
vt 0.16667 0.10000
vt 0.22222 0.10000
vt 0.22222 0.24000
vt 0.16667 0.24000
vt 0.22222 0.10000
vt 0.27778 0.10000
vt 0.27778 0.24000
vt 0.22222 0.24000
vt 0.27778 0.10000
vt 0.33333 0.10000
vt 0.33333 0.24000
vt 0.27778 0.24000
vt 0.33333 0.10000
vt 0.38889 0.10000
vt 0.38889 0.24000
vt 0.33333 0.24000
vt 0.38889 0.10000
vt 0.44444 0.10000
vt 0.44444 0.24000
vt 0.38889 0.24000
vt 0.44444 0.10000
vt 0.50000 0.10000
vt 0.50000 0.24000
vt 0.44444 0.24000
vt 0.50000 0.10000
vt 0.55556 0.10000
vt 0.55556 0.24000
vt 0.50000 0.24000
vt 0.55556 0.10000
vt 0.61111 0.10000
vt 0.61111 0.24000
vt 0.55556 0.24000
vt 0.61111 0.10000
vt 0.66667 0.10000
vt 0.66667 0.24000
vt 0.61111 0.24000
vt 0.66667 0.10000
vt 0.72222 0.10000
vt 0.72222 0.24000
vt 0.66667 0.24000
vt 0.72222 0.10000
vt 0.77778 0.10000
vt 0.77778 0.24000
vt 0.72222 0.24000
vt 0.77778 0.10000
vt 0.83333 0.10000
vt 0.83333 0.24000
vt 0.77778 0.24000
vt 0.83333 0.10000
vt 0.88889 0.10000
vt 0.88889 0.24000
vt 0.83333 0.24000
vt 0.88889 0.10000
vt 0.94444 0.10000
vt 0.94444 0.24000
vt 0.88889 0.24000
vt 0.94444 0.10000
vt 1.00000 0.10000
vt 1.00000 0.24000
vt 0.94444 0.24000
vt 0.00000 0.24000
vt 0.06250 0.24000
vt 0.06250 0.36000
vt 0.00000 0.36000
vt 0.06250 0.24000
vt 0.12500 0.24000
vt 0.12500 0.36000
vt 0.06250 0.36000
vt 0.12500 0.24000
vt 0.18750 0.24000
vt 0.18750 0.36000
vt 0.12500 0.36000
vt 0.18750 0.24000
vt 0.25000 0.24000
vt 0.25000 0.36000
vt 0.18750 0.36000
vt 0.25000 0.24000
vt 0.31250 0.24000
vt 0.31250 0.36000
vt 0.25000 0.36000
vt 0.31250 0.24000
vt 0.37500 0.24000
vt 0.37500 0.36000
vt 0.31250 0.36000
vt 0.37500 0.24000
vt 0.43750 0.24000
vt 0.43750 0.36000
vt 0.37500 0.36000
vt 0.43750 0.24000
vt 0.50000 0.24000
vt 0.50000 0.36000
vt 0.43750 0.36000
vt 0.50000 0.24000
vt 0.56250 0.24000
vt 0.56250 0.36000
vt 0.50000 0.36000
vt 0.56250 0.24000
vt 0.62500 0.24000
vt 0.62500 0.36000
vt 0.56250 0.36000
vt 0.62500 0.24000
vt 0.68750 0.24000
vt 0.68750 0.36000
vt 0.62500 0.36000
vt 0.68750 0.24000
vt 0.75000 0.24000
vt 0.75000 0.36000
vt 0.68750 0.36000
vt 0.75000 0.24000
vt 0.81250 0.24000
vt 0.81250 0.36000
vt 0.75000 0.36000
vt 0.81250 0.24000
vt 0.87500 0.24000
vt 0.87500 0.36000
vt 0.81250 0.36000
vt 0.87500 0.24000
vt 0.93750 0.24000
vt 0.93750 0.36000
vt 0.87500 0.36000
vt 0.93750 0.24000
vt 1.00000 0.24000
vt 1.00000 0.36000
vt 0.93750 0.36000
vt 0.00000 0.36000
vt 0.07143 0.36000
vt 0.07143 0.46000
vt 0.00000 0.46000
vt 0.07143 0.36000
vt 0.14286 0.36000
vt 0.14286 0.46000
vt 0.07143 0.46000
vt 0.14286 0.36000
vt 0.21429 0.36000
vt 0.21429 0.46000
vt 0.14286 0.46000
vt 0.21429 0.36000
vt 0.28571 0.36000
vt 0.28571 0.46000
vt 0.21429 0.46000
vt 0.28571 0.36000
vt 0.35714 0.36000
vt 0.35714 0.46000
vt 0.28571 0.46000
vt 0.35714 0.36000
vt 0.42857 0.36000
vt 0.42857 0.46000
vt 0.35714 0.46000
vt 0.42857 0.36000
vt 0.50000 0.36000
vt 0.50000 0.46000
vt 0.42857 0.46000
vt 0.50000 0.36000
vt 0.57143 0.36000
vt 0.57143 0.46000
vt 0.50000 0.46000
vt 0.57143 0.36000
vt 0.64286 0.36000
vt 0.64286 0.46000
vt 0.57143 0.46000
vt 0.64286 0.36000
vt 0.71429 0.36000
vt 0.71429 0.46000
vt 0.64286 0.46000
vt 0.71429 0.36000
vt 0.78571 0.36000
vt 0.78571 0.46000
vt 0.71429 0.46000
vt 0.78571 0.36000
vt 0.85714 0.36000
vt 0.85714 0.46000
vt 0.78571 0.46000
vt 0.85714 0.36000
vt 0.92857 0.36000
vt 0.92857 0.46000
vt 0.85714 0.46000
vt 0.92857 0.36000
vt 1.00000 0.36000
vt 1.00000 0.46000
vt 0.92857 0.46000
vt 0.03125 0.00000
vt 0.00000 0.12500
vt 0.06250 0.12500
vt 0.09375 0.00000
vt 0.06250 0.12500
vt 0.12500 0.12500
vt 0.15625 0.00000
vt 0.12500 0.12500
vt 0.18750 0.12500
vt 0.21875 0.00000
vt 0.18750 0.12500
vt 0.25000 0.12500
vt 0.28125 0.00000
vt 0.25000 0.12500
vt 0.31250 0.12500
vt 0.34375 0.00000
vt 0.31250 0.12500
vt 0.37500 0.12500
vt 0.40625 0.00000
vt 0.37500 0.12500
vt 0.43750 0.12500
vt 0.46875 0.00000
vt 0.43750 0.12500
vt 0.50000 0.12500
vt 0.53125 0.00000
vt 0.50000 0.12500
vt 0.56250 0.12500
vt 0.59375 0.00000
vt 0.56250 0.12500
vt 0.62500 0.12500
vt 0.65625 0.00000
vt 0.62500 0.12500
vt 0.68750 0.12500
vt 0.71875 0.00000
vt 0.68750 0.12500
vt 0.75000 0.12500
vt 0.78125 0.00000
vt 0.75000 0.12500
vt 0.81250 0.12500
vt 0.84375 0.00000
vt 0.81250 0.12500
vt 0.87500 0.12500
vt 0.90625 0.00000
vt 0.87500 0.12500
vt 0.93750 0.12500
vt 0.96875 0.00000
vt 0.93750 0.12500
vt 1.00000 0.12500
vt 0.00000 0.12500
vt 0.06250 0.12500
vt 0.00000 0.25000
vt 0.06250 0.25000
vt 0.06250 0.12500
vt 0.12500 0.12500
vt 0.06250 0.25000
vt 0.12500 0.25000
vt 0.12500 0.12500
vt 0.18750 0.12500
vt 0.12500 0.25000
vt 0.18750 0.25000
vt 0.18750 0.12500
vt 0.25000 0.12500
vt 0.18750 0.25000
vt 0.25000 0.25000
vt 0.25000 0.12500
vt 0.31250 0.12500
vt 0.25000 0.25000
vt 0.31250 0.25000
vt 0.31250 0.12500
vt 0.37500 0.12500
vt 0.31250 0.25000
vt 0.37500 0.25000
vt 0.37500 0.12500
vt 0.43750 0.12500
vt 0.37500 0.25000
vt 0.43750 0.25000
vt 0.43750 0.12500
vt 0.50000 0.12500
vt 0.43750 0.25000
vt 0.50000 0.25000
vt 0.50000 0.12500
vt 0.56250 0.12500
vt 0.50000 0.25000
vt 0.56250 0.25000
vt 0.56250 0.12500
vt 0.62500 0.12500
vt 0.56250 0.25000
vt 0.62500 0.25000
vt 0.62500 0.12500
vt 0.68750 0.12500
vt 0.62500 0.25000
vt 0.68750 0.25000
vt 0.68750 0.12500
vt 0.75000 0.12500
vt 0.68750 0.25000
vt 0.75000 0.25000
vt 0.75000 0.12500
vt 0.81250 0.12500
vt 0.75000 0.25000
vt 0.81250 0.25000
vt 0.81250 0.12500
vt 0.87500 0.12500
vt 0.81250 0.25000
vt 0.87500 0.25000
vt 0.87500 0.12500
vt 0.93750 0.12500
vt 0.87500 0.25000
vt 0.93750 0.25000
vt 0.93750 0.12500
vt 1.00000 0.12500
vt 0.93750 0.25000
vt 1.00000 0.25000
vt 0.00000 0.25000
vt 0.06250 0.25000
vt 0.00000 0.37500
vt 0.06250 0.37500
vt 0.06250 0.25000
vt 0.12500 0.25000
vt 0.06250 0.37500
vt 0.12500 0.37500
vt 0.12500 0.25000
vt 0.18750 0.25000
vt 0.12500 0.37500
vt 0.18750 0.37500
vt 0.18750 0.25000
vt 0.25000 0.25000
vt 0.18750 0.37500
vt 0.25000 0.37500
vt 0.25000 0.25000
vt 0.31250 0.25000
vt 0.25000 0.37500
vt 0.31250 0.37500
vt 0.31250 0.25000
vt 0.37500 0.25000
vt 0.31250 0.37500
vt 0.37500 0.37500
vt 0.37500 0.25000
vt 0.43750 0.25000
vt 0.37500 0.37500
vt 0.43750 0.37500
vt 0.43750 0.25000
vt 0.50000 0.25000
vt 0.43750 0.37500
vt 0.50000 0.37500
vt 0.50000 0.25000
vt 0.56250 0.25000
vt 0.50000 0.37500
vt 0.56250 0.37500
vt 0.56250 0.25000
vt 0.62500 0.25000
vt 0.56250 0.37500
vt 0.62500 0.37500
vt 0.62500 0.25000
vt 0.68750 0.25000
vt 0.62500 0.37500
vt 0.68750 0.37500
vt 0.68750 0.25000
vt 0.75000 0.25000
vt 0.68750 0.37500
vt 0.75000 0.37500
vt 0.75000 0.25000
vt 0.81250 0.25000
vt 0.75000 0.37500
vt 0.81250 0.37500
vt 0.81250 0.25000
vt 0.87500 0.25000
vt 0.81250 0.37500
vt 0.87500 0.37500
vt 0.87500 0.25000
vt 0.93750 0.25000
vt 0.87500 0.37500
vt 0.93750 0.37500
vt 0.93750 0.25000
vt 1.00000 0.25000
vt 0.93750 0.37500
vt 1.00000 0.37500
vt 0.00000 0.37500
vt 0.06250 0.37500
vt 0.00000 0.50000
vt 0.06250 0.50000
vt 0.06250 0.37500
vt 0.12500 0.37500
vt 0.06250 0.50000
vt 0.12500 0.50000
vt 0.12500 0.37500
vt 0.18750 0.37500
vt 0.12500 0.50000
vt 0.18750 0.50000
vt 0.18750 0.37500
vt 0.25000 0.37500
vt 0.18750 0.50000
vt 0.25000 0.50000
vt 0.25000 0.37500
vt 0.31250 0.37500
vt 0.25000 0.50000
vt 0.31250 0.50000
vt 0.31250 0.37500
vt 0.37500 0.37500
vt 0.31250 0.50000
vt 0.37500 0.50000
vt 0.37500 0.37500
vt 0.43750 0.37500
vt 0.37500 0.50000
vt 0.43750 0.50000
vt 0.43750 0.37500
vt 0.50000 0.37500
vt 0.43750 0.50000
vt 0.50000 0.50000
vt 0.50000 0.37500
vt 0.56250 0.37500
vt 0.50000 0.50000
vt 0.56250 0.50000
vt 0.56250 0.37500
vt 0.62500 0.37500
vt 0.56250 0.50000
vt 0.62500 0.50000
vt 0.62500 0.37500
vt 0.68750 0.37500
vt 0.62500 0.50000
vt 0.68750 0.50000
vt 0.68750 0.37500
vt 0.75000 0.37500
vt 0.68750 0.50000
vt 0.75000 0.50000
vt 0.75000 0.37500
vt 0.81250 0.37500
vt 0.75000 0.50000
vt 0.81250 0.50000
vt 0.81250 0.37500
vt 0.87500 0.37500
vt 0.81250 0.50000
vt 0.87500 0.50000
vt 0.87500 0.37500
vt 0.93750 0.37500
vt 0.87500 0.50000
vt 0.93750 0.50000
vt 0.93750 0.37500
vt 1.00000 0.37500
vt 0.93750 0.50000
vt 1.00000 0.50000
vt 0.00000 0.50000
vt 0.06250 0.50000
vt 0.00000 0.62500
vt 0.06250 0.62500
vt 0.06250 0.50000
vt 0.12500 0.50000
vt 0.06250 0.62500
vt 0.12500 0.62500
vt 0.12500 0.50000
vt 0.18750 0.50000
vt 0.12500 0.62500
vt 0.18750 0.62500
vt 0.18750 0.50000
vt 0.25000 0.50000
vt 0.18750 0.62500
vt 0.25000 0.62500
vt 0.25000 0.50000
vt 0.31250 0.50000
vt 0.25000 0.62500
vt 0.31250 0.62500
vt 0.31250 0.50000
vt 0.37500 0.50000
vt 0.31250 0.62500
vt 0.37500 0.62500
vt 0.37500 0.50000
vt 0.43750 0.50000
vt 0.37500 0.62500
vt 0.43750 0.62500
vt 0.43750 0.50000
vt 0.50000 0.50000
vt 0.43750 0.62500
vt 0.50000 0.62500
vt 0.50000 0.50000
vt 0.56250 0.50000
vt 0.50000 0.62500
vt 0.56250 0.62500
vt 0.56250 0.50000
vt 0.62500 0.50000
vt 0.56250 0.62500
vt 0.62500 0.62500
vt 0.62500 0.50000
vt 0.68750 0.50000
vt 0.62500 0.62500
vt 0.68750 0.62500
vt 0.68750 0.50000
vt 0.75000 0.50000
vt 0.68750 0.62500
vt 0.75000 0.62500
vt 0.75000 0.50000
vt 0.81250 0.50000
vt 0.75000 0.62500
vt 0.81250 0.62500
vt 0.81250 0.50000
vt 0.87500 0.50000
vt 0.81250 0.62500
vt 0.87500 0.62500
vt 0.87500 0.50000
vt 0.93750 0.50000
vt 0.87500 0.62500
vt 0.93750 0.62500
vt 0.93750 0.50000
vt 1.00000 0.50000
vt 0.93750 0.62500
vt 1.00000 0.62500
vt 0.00000 0.62500
vt 0.06250 0.62500
vt 0.00000 0.75000
vt 0.06250 0.75000
vt 0.06250 0.62500
vt 0.12500 0.62500
vt 0.06250 0.75000
vt 0.12500 0.75000
vt 0.12500 0.62500
vt 0.18750 0.62500
vt 0.12500 0.75000
vt 0.18750 0.75000
vt 0.18750 0.62500
vt 0.25000 0.62500
vt 0.18750 0.75000
vt 0.25000 0.75000
vt 0.25000 0.62500
vt 0.31250 0.62500
vt 0.25000 0.75000
vt 0.31250 0.75000
vt 0.31250 0.62500
vt 0.37500 0.62500
vt 0.31250 0.75000
vt 0.37500 0.75000
vt 0.37500 0.62500
vt 0.43750 0.62500
vt 0.37500 0.75000
vt 0.43750 0.75000
vt 0.43750 0.62500
vt 0.50000 0.62500
vt 0.43750 0.75000
vt 0.50000 0.75000
vt 0.50000 0.62500
vt 0.56250 0.62500
vt 0.50000 0.75000
vt 0.56250 0.75000
vt 0.56250 0.62500
vt 0.62500 0.62500
vt 0.56250 0.75000
vt 0.62500 0.75000
vt 0.62500 0.62500
vt 0.68750 0.62500
vt 0.62500 0.75000
vt 0.68750 0.75000
vt 0.68750 0.62500
vt 0.75000 0.62500
vt 0.68750 0.75000
vt 0.75000 0.75000
vt 0.75000 0.62500
vt 0.81250 0.62500
vt 0.75000 0.75000
vt 0.81250 0.75000
vt 0.81250 0.62500
vt 0.87500 0.62500
vt 0.81250 0.75000
vt 0.87500 0.75000
vt 0.87500 0.62500
vt 0.93750 0.62500
vt 0.87500 0.75000
vt 0.93750 0.75000
vt 0.93750 0.62500
vt 1.00000 0.62500
vt 0.93750 0.75000
vt 1.00000 0.75000
vt 0.00000 0.75000
vt 0.06250 0.75000
vt 0.00000 0.87500
vt 0.06250 0.87500
vt 0.06250 0.75000
vt 0.12500 0.75000
vt 0.06250 0.87500
vt 0.12500 0.87500
vt 0.12500 0.75000
vt 0.18750 0.75000
vt 0.12500 0.87500
vt 0.18750 0.87500
vt 0.18750 0.75000
vt 0.25000 0.75000
vt 0.18750 0.87500
vt 0.25000 0.87500
vt 0.25000 0.75000
vt 0.31250 0.75000
vt 0.25000 0.87500
vt 0.31250 0.87500
vt 0.31250 0.75000
vt 0.37500 0.75000
vt 0.31250 0.87500
vt 0.37500 0.87500
vt 0.37500 0.75000
vt 0.43750 0.75000
vt 0.37500 0.87500
vt 0.43750 0.87500
vt 0.43750 0.75000
vt 0.50000 0.75000
vt 0.43750 0.87500
vt 0.50000 0.87500
vt 0.50000 0.75000
vt 0.56250 0.75000
vt 0.50000 0.87500
vt 0.56250 0.87500
vt 0.56250 0.75000
vt 0.62500 0.75000
vt 0.56250 0.87500
vt 0.62500 0.87500
vt 0.62500 0.75000
vt 0.68750 0.75000
vt 0.62500 0.87500
vt 0.68750 0.87500
vt 0.68750 0.75000
vt 0.75000 0.75000
vt 0.68750 0.87500
vt 0.75000 0.87500
vt 0.75000 0.75000
vt 0.81250 0.75000
vt 0.75000 0.87500
vt 0.81250 0.87500
vt 0.81250 0.75000
vt 0.87500 0.75000
vt 0.81250 0.87500
vt 0.87500 0.87500
vt 0.87500 0.75000
vt 0.93750 0.75000
vt 0.87500 0.87500
vt 0.93750 0.87500
vt 0.93750 0.75000
vt 1.00000 0.75000
vt 0.93750 0.87500
vt 1.00000 0.87500
vt 0.03125 1.00000
vt 0.00000 0.87500
vt 0.06250 705.00000
vt 0.09375 1.00000
vt 0.06250 0.87500
vt 0.12500 708.00000
vt 0.15625 1.00000
vt 0.12500 0.87500
vt 0.18750 711.00000
vt 0.21875 1.00000
vt 0.18750 0.87500
vt 0.25000 714.00000
vt 0.28125 1.00000
vt 0.25000 0.87500
vt 0.31250 717.00000
vt 0.34375 1.00000
vt 0.31250 0.87500
vt 0.37500 720.00000
vt 0.40625 1.00000
vt 0.37500 0.87500
vt 0.43750 723.00000
vt 0.46875 1.00000
vt 0.43750 0.87500
vt 0.50000 726.00000
vt 0.53125 1.00000
vt 0.50000 0.87500
vt 0.56250 729.00000
vt 0.59375 1.00000
vt 0.56250 0.87500
vt 0.62500 732.00000
vt 0.65625 1.00000
vt 0.62500 0.87500
vt 0.68750 735.00000
vt 0.71875 1.00000
vt 0.68750 0.87500
vt 0.75000 738.00000
vt 0.78125 1.00000
vt 0.75000 0.87500
vt 0.81250 741.00000
vt 0.84375 1.00000
vt 0.81250 0.87500
vt 0.87500 744.00000
vt 0.90625 1.00000
vt 0.87500 0.87500
vt 0.93750 747.00000
vt 0.96875 1.00000
vt 0.93750 0.87500
vt 1.00000 750.00000
vt 0.50000 0.50000
vt 0.50000 0.50000
vt 0.50000 0.50000
vt 0.50000 0.50000
vt 0.50000 0.50000
vt 0.50000 0.50000
vt 0.50000 0.50000
vt 0.50000 0.50000
vt 0.00000 0.62000
vt 0.16667 0.62000
vt 0.16667 0.70000
vt 0.00000 0.70000
vt 0.16667 0.62000
vt 0.33333 0.62000
vt 0.33333 0.70000
vt 0.16667 0.70000
vt 0.33333 0.62000
vt 0.50000 0.62000
vt 0.50000 0.70000
vt 0.33333 0.70000
vt 0.50000 0.62000
vt 0.66667 0.62000
vt 0.66667 0.70000
vt 0.50000 0.70000
vt 0.66667 0.62000
vt 0.83333 0.62000
vt 0.83333 0.70000
vt 0.66667 0.70000
vt 0.83333 0.62000
vt 1.00000 0.62000
vt 1.00000 0.70000
vt 0.83333 0.70000
vt 0.50000 0.50000
vt 0.50000 0.50000
vt 0.50000 0.50000
vt 0.50000 0.50000
vt 0.50000 0.50000
vt 0.50000 0.50000
vt 0.50000 0.50000
vt 0.50000 0.50000
vn 0.22000 0.00000 0.00000
vn 0.20923 0.00000 0.06798
vn 0.20923 0.00000 0.06798
vn 0.22000 0.00000 0.00000
vn 0.20923 0.00000 0.06798
vn 0.17798 0.00000 0.12931
vn 0.17798 0.00000 0.12931
vn 0.20923 0.00000 0.06798
vn 0.17798 0.00000 0.12931
vn 0.12931 0.00000 0.17798
vn 0.12931 0.00000 0.17798
vn 0.17798 0.00000 0.12931
vn 0.12931 0.00000 0.17798
vn 0.06798 0.00000 0.20923
vn 0.06798 0.00000 0.20923
vn 0.12931 0.00000 0.17798
vn 0.06798 0.00000 0.20923
vn 0.00000 0.00000 0.22000
vn 0.00000 0.00000 0.22000
vn 0.06798 0.00000 0.20923
vn 0.00000 0.00000 0.22000
vn -0.06798 0.00000 0.20923
vn -0.06798 0.00000 0.20923
vn 0.00000 0.00000 0.22000
vn -0.06798 0.00000 0.20923
vn -0.12931 0.00000 0.17798
vn -0.12931 0.00000 0.17798
vn -0.06798 0.00000 0.20923
vn -0.12931 0.00000 0.17798
vn -0.17798 0.00000 0.12931
vn -0.17798 0.00000 0.12931
vn -0.12931 0.00000 0.17798
vn -0.17798 0.00000 0.12931
vn -0.20923 0.00000 0.06798
vn -0.20923 0.00000 0.06798
vn -0.17798 0.00000 0.12931
vn -0.20923 0.00000 0.06798
vn -0.22000 0.00000 0.00000
vn -0.22000 0.00000 0.00000
vn -0.20923 0.00000 0.06798
vn -0.22000 0.00000 0.00000
vn -0.20923 0.00000 -0.06798
vn -0.20923 0.00000 -0.06798
vn -0.22000 0.00000 0.00000
vn -0.20923 0.00000 -0.06798
vn -0.17798 0.00000 -0.12931
vn -0.17798 0.00000 -0.12931
vn -0.20923 0.00000 -0.06798
vn -0.17798 0.00000 -0.12931
vn -0.12931 0.00000 -0.17798
vn -0.12931 0.00000 -0.17798
vn -0.17798 0.00000 -0.12931
vn -0.12931 0.00000 -0.17798
vn -0.06798 0.00000 -0.20923
vn -0.06798 0.00000 -0.20923
vn -0.12931 0.00000 -0.17798
vn -0.06798 0.00000 -0.20923
vn -0.00000 0.00000 -0.22000
vn -0.00000 0.00000 -0.22000
vn -0.06798 0.00000 -0.20923
vn -0.00000 0.00000 -0.22000
vn 0.06798 0.00000 -0.20923
vn 0.06798 0.00000 -0.20923
vn -0.00000 0.00000 -0.22000
vn 0.06798 0.00000 -0.20923
vn 0.12931 0.00000 -0.17798
vn 0.12931 0.00000 -0.17798
vn 0.06798 0.00000 -0.20923
vn 0.12931 0.00000 -0.17798
vn 0.17798 0.00000 -0.12931
vn 0.17798 0.00000 -0.12931
vn 0.12931 0.00000 -0.17798
vn 0.17798 0.00000 -0.12931
vn 0.20923 0.00000 -0.06798
vn 0.20923 0.00000 -0.06798
vn 0.17798 0.00000 -0.12931
vn 0.20923 0.00000 -0.06798
vn 0.22000 0.00000 -0.00000
vn 0.22000 0.00000 -0.00000
vn 0.20923 0.00000 -0.06798
vn 0.20000 0.00000 0.00000
vn 0.18794 0.00000 0.06840
vn 0.18794 0.00000 0.06840
vn 0.20000 0.00000 0.00000
vn 0.18794 0.00000 0.06840
vn 0.15321 0.00000 0.12856
vn 0.15321 0.00000 0.12856
vn 0.18794 0.00000 0.06840
vn 0.15321 0.00000 0.12856
vn 0.10000 0.00000 0.17321
vn 0.10000 0.00000 0.17321
vn 0.15321 0.00000 0.12856
vn 0.10000 0.00000 0.17321
vn 0.03473 0.00000 0.19696
vn 0.03473 0.00000 0.19696
vn 0.10000 0.00000 0.17321
vn 0.03473 0.00000 0.19696
vn -0.03473 0.00000 0.19696
vn -0.03473 0.00000 0.19696
vn 0.03473 0.00000 0.19696
vn -0.03473 0.00000 0.19696
vn -0.10000 0.00000 0.17321
vn -0.10000 0.00000 0.17321
vn -0.03473 0.00000 0.19696
vn -0.10000 0.00000 0.17321
vn -0.15321 0.00000 0.12856
vn -0.15321 0.00000 0.12856
vn -0.10000 0.00000 0.17321
vn -0.15321 0.00000 0.12856
vn -0.18794 0.00000 0.06840
vn -0.18794 0.00000 0.06840
vn -0.15321 0.00000 0.12856
vn -0.18794 0.00000 0.06840
vn -0.20000 0.00000 0.00000
vn -0.20000 0.00000 0.00000
vn -0.18794 0.00000 0.06840
vn -0.20000 0.00000 0.00000
vn -0.18794 0.00000 -0.06840
vn -0.18794 0.00000 -0.06840
vn -0.20000 0.00000 0.00000
vn -0.18794 0.00000 -0.06840
vn -0.15321 0.00000 -0.12856
vn -0.15321 0.00000 -0.12856
vn -0.18794 0.00000 -0.06840
vn -0.15321 0.00000 -0.12856
vn -0.10000 0.00000 -0.17321
vn -0.10000 0.00000 -0.17321
vn -0.15321 0.00000 -0.12856
vn -0.10000 0.00000 -0.17321
vn -0.03473 0.00000 -0.19696
vn -0.03473 0.00000 -0.19696
vn -0.10000 0.00000 -0.17321
vn -0.03473 0.00000 -0.19696
vn 0.03473 0.00000 -0.19696
vn 0.03473 0.00000 -0.19696
vn -0.03473 0.00000 -0.19696
vn 0.03473 0.00000 -0.19696
vn 0.10000 0.00000 -0.17321
vn 0.10000 0.00000 -0.17321
vn 0.03473 0.00000 -0.19696
vn 0.10000 0.00000 -0.17321
vn 0.15321 0.00000 -0.12856
vn 0.15321 0.00000 -0.12856
vn 0.10000 0.00000 -0.17321
vn 0.15321 0.00000 -0.12856
vn 0.18794 0.00000 -0.06840
vn 0.18794 0.00000 -0.06840
vn 0.15321 0.00000 -0.12856
vn 0.18794 0.00000 -0.06840
vn 0.20000 0.00000 -0.00000
vn 0.20000 0.00000 -0.00000
vn 0.18794 0.00000 -0.06840
vn 0.16000 0.00000 0.00000
vn 0.14782 0.00000 0.06123
vn 0.14782 0.00000 0.06123
vn 0.16000 0.00000 0.00000
vn 0.14782 0.00000 0.06123
vn 0.11314 0.00000 0.11314
vn 0.11314 0.00000 0.11314
vn 0.14782 0.00000 0.06123
vn 0.11314 0.00000 0.11314
vn 0.06123 0.00000 0.14782
vn 0.06123 0.00000 0.14782
vn 0.11314 0.00000 0.11314
vn 0.06123 0.00000 0.14782
vn 0.00000 0.00000 0.16000
vn 0.00000 0.00000 0.16000
vn 0.06123 0.00000 0.14782
vn 0.00000 0.00000 0.16000
vn -0.06123 0.00000 0.14782
vn -0.06123 0.00000 0.14782
vn 0.00000 0.00000 0.16000
vn -0.06123 0.00000 0.14782
vn -0.11314 0.00000 0.11314
vn -0.11314 0.00000 0.11314
vn -0.06123 0.00000 0.14782
vn -0.11314 0.00000 0.11314
vn -0.14782 0.00000 0.06123
vn -0.14782 0.00000 0.06123
vn -0.11314 0.00000 0.11314
vn -0.14782 0.00000 0.06123
vn -0.16000 0.00000 0.00000
vn -0.16000 0.00000 0.00000
vn -0.14782 0.00000 0.06123
vn -0.16000 0.00000 0.00000
vn -0.14782 0.00000 -0.06123
vn -0.14782 0.00000 -0.06123
vn -0.16000 0.00000 0.00000
vn -0.14782 0.00000 -0.06123
vn -0.11314 0.00000 -0.11314
vn -0.11314 0.00000 -0.11314
vn -0.14782 0.00000 -0.06123
vn -0.11314 0.00000 -0.11314
vn -0.06123 0.00000 -0.14782
vn -0.06123 0.00000 -0.14782
vn -0.11314 0.00000 -0.11314
vn -0.06123 0.00000 -0.14782
vn -0.00000 0.00000 -0.16000
vn -0.00000 0.00000 -0.16000
vn -0.06123 0.00000 -0.14782
vn -0.00000 0.00000 -0.16000
vn 0.06123 0.00000 -0.14782
vn 0.06123 0.00000 -0.14782
vn -0.00000 0.00000 -0.16000
vn 0.06123 0.00000 -0.14782
vn 0.11314 0.00000 -0.11314
vn 0.11314 0.00000 -0.11314
vn 0.06123 0.00000 -0.14782
vn 0.11314 0.00000 -0.11314
vn 0.14782 0.00000 -0.06123
vn 0.14782 0.00000 -0.06123
vn 0.11314 0.00000 -0.11314
vn 0.14782 0.00000 -0.06123
vn 0.16000 0.00000 -0.00000
vn 0.16000 0.00000 -0.00000
vn 0.14782 0.00000 -0.06123
vn 0.12000 0.00000 0.00000
vn 0.10812 0.00000 0.05207
vn 0.10812 0.00000 0.05207
vn 0.12000 0.00000 0.00000
vn 0.10812 0.00000 0.05207
vn 0.07482 0.00000 0.09382
vn 0.07482 0.00000 0.09382
vn 0.10812 0.00000 0.05207
vn 0.07482 0.00000 0.09382
vn 0.02670 0.00000 0.11699
vn 0.02670 0.00000 0.11699
vn 0.07482 0.00000 0.09382
vn 0.02670 0.00000 0.11699
vn -0.02670 0.00000 0.11699
vn -0.02670 0.00000 0.11699
vn 0.02670 0.00000 0.11699
vn -0.02670 0.00000 0.11699
vn -0.07482 0.00000 0.09382
vn -0.07482 0.00000 0.09382
vn -0.02670 0.00000 0.11699
vn -0.07482 0.00000 0.09382
vn -0.10812 0.00000 0.05207
vn -0.10812 0.00000 0.05207
vn -0.07482 0.00000 0.09382
vn -0.10812 0.00000 0.05207
vn -0.12000 0.00000 0.00000
vn -0.12000 0.00000 0.00000
vn -0.10812 0.00000 0.05207
vn -0.12000 0.00000 0.00000
vn -0.10812 0.00000 -0.05207
vn -0.10812 0.00000 -0.05207
vn -0.12000 0.00000 0.00000
vn -0.10812 0.00000 -0.05207
vn -0.07482 0.00000 -0.09382
vn -0.07482 0.00000 -0.09382
vn -0.10812 0.00000 -0.05207
vn -0.07482 0.00000 -0.09382
vn -0.02670 0.00000 -0.11699
vn -0.02670 0.00000 -0.11699
vn -0.07482 0.00000 -0.09382
vn -0.02670 0.00000 -0.11699
vn 0.02670 0.00000 -0.11699
vn 0.02670 0.00000 -0.11699
vn -0.02670 0.00000 -0.11699
vn 0.02670 0.00000 -0.11699
vn 0.07482 0.00000 -0.09382
vn 0.07482 0.00000 -0.09382
vn 0.02670 0.00000 -0.11699
vn 0.07482 0.00000 -0.09382
vn 0.10812 0.00000 -0.05207
vn 0.10812 0.00000 -0.05207
vn 0.07482 0.00000 -0.09382
vn 0.10812 0.00000 -0.05207
vn 0.12000 0.00000 -0.00000
vn 0.12000 0.00000 -0.00000
vn 0.10812 0.00000 -0.05207
vn 0.00000 1.00000 0.00000
vn 0.38268 0.92388 0.00000
vn 0.35355 0.92388 0.14645
vn 0.00000 1.00000 0.00000
vn 0.35355 0.92388 0.14645
vn 0.27060 0.92388 0.27060
vn 0.00000 1.00000 0.00000
vn 0.27060 0.92388 0.27060
vn 0.14645 0.92388 0.35355
vn 0.00000 1.00000 0.00000
vn 0.14645 0.92388 0.35355
vn 0.00000 0.92388 0.38268
vn -0.00000 1.00000 0.00000
vn 0.00000 0.92388 0.38268
vn -0.14645 0.92388 0.35355
vn -0.00000 1.00000 0.00000
vn -0.14645 0.92388 0.35355
vn -0.27060 0.92388 0.27060
vn -0.00000 1.00000 0.00000
vn -0.27060 0.92388 0.27060
vn -0.35355 0.92388 0.14645
vn -0.00000 1.00000 0.00000
vn -0.35355 0.92388 0.14645
vn -0.38268 0.92388 0.00000
vn -0.00000 1.00000 -0.00000
vn -0.38268 0.92388 0.00000
vn -0.35355 0.92388 -0.14645
vn -0.00000 1.00000 -0.00000
vn -0.35355 0.92388 -0.14645
vn -0.27060 0.92388 -0.27060
vn -0.00000 1.00000 -0.00000
vn -0.27060 0.92388 -0.27060
vn -0.14645 0.92388 -0.35355
vn -0.00000 1.00000 -0.00000
vn -0.14645 0.92388 -0.35355
vn -0.00000 0.92388 -0.38268
vn 0.00000 1.00000 -0.00000
vn -0.00000 0.92388 -0.38268
vn 0.14645 0.92388 -0.35355
vn 0.00000 1.00000 -0.00000
vn 0.14645 0.92388 -0.35355
vn 0.27060 0.92388 -0.27060
vn 0.00000 1.00000 -0.00000
vn 0.27060 0.92388 -0.27060
vn 0.35355 0.92388 -0.14645
vn 0.00000 1.00000 -0.00000
vn 0.35355 0.92388 -0.14645
vn 0.38268 0.92388 -0.00000
vn 0.38268 0.92388 0.00000
vn 0.35355 0.92388 0.14645
vn 0.70711 0.70711 0.00000
vn 0.65328 0.70711 0.27060
vn 0.35355 0.92388 0.14645
vn 0.27060 0.92388 0.27060
vn 0.65328 0.70711 0.27060
vn 0.50000 0.70711 0.50000
vn 0.27060 0.92388 0.27060
vn 0.14645 0.92388 0.35355
vn 0.50000 0.70711 0.50000
vn 0.27060 0.70711 0.65328
vn 0.14645 0.92388 0.35355
vn 0.00000 0.92388 0.38268
vn 0.27060 0.70711 0.65328
vn 0.00000 0.70711 0.70711
vn 0.00000 0.92388 0.38268
vn -0.14645 0.92388 0.35355
vn 0.00000 0.70711 0.70711
vn -0.27060 0.70711 0.65328
vn -0.14645 0.92388 0.35355
vn -0.27060 0.92388 0.27060
vn -0.27060 0.70711 0.65328
vn -0.50000 0.70711 0.50000
vn -0.27060 0.92388 0.27060
vn -0.35355 0.92388 0.14645
vn -0.50000 0.70711 0.50000
vn -0.65328 0.70711 0.27060
vn -0.35355 0.92388 0.14645
vn -0.38268 0.92388 0.00000
vn -0.65328 0.70711 0.27060
vn -0.70711 0.70711 0.00000
vn -0.38268 0.92388 0.00000
vn -0.35355 0.92388 -0.14645
vn -0.70711 0.70711 0.00000
vn -0.65328 0.70711 -0.27060
vn -0.35355 0.92388 -0.14645
vn -0.27060 0.92388 -0.27060
vn -0.65328 0.70711 -0.27060
vn -0.50000 0.70711 -0.50000
vn -0.27060 0.92388 -0.27060
vn -0.14645 0.92388 -0.35355
vn -0.50000 0.70711 -0.50000
vn -0.27060 0.70711 -0.65328
vn -0.14645 0.92388 -0.35355
vn -0.00000 0.92388 -0.38268
vn -0.27060 0.70711 -0.65328
vn -0.00000 0.70711 -0.70711
vn -0.00000 0.92388 -0.38268
vn 0.14645 0.92388 -0.35355
vn -0.00000 0.70711 -0.70711
vn 0.27060 0.70711 -0.65328
vn 0.14645 0.92388 -0.35355
vn 0.27060 0.92388 -0.27060
vn 0.27060 0.70711 -0.65328
vn 0.50000 0.70711 -0.50000
vn 0.27060 0.92388 -0.27060
vn 0.35355 0.92388 -0.14645
vn 0.50000 0.70711 -0.50000
vn 0.65328 0.70711 -0.27060
vn 0.35355 0.92388 -0.14645
vn 0.38268 0.92388 -0.00000
vn 0.65328 0.70711 -0.27060
vn 0.70711 0.70711 -0.00000
vn 0.70711 0.70711 0.00000
vn 0.65328 0.70711 0.27060
vn 0.92388 0.38268 0.00000
vn 0.85355 0.38268 0.35355
vn 0.65328 0.70711 0.27060
vn 0.50000 0.70711 0.50000
vn 0.85355 0.38268 0.35355
vn 0.65328 0.38268 0.65328
vn 0.50000 0.70711 0.50000
vn 0.27060 0.70711 0.65328
vn 0.65328 0.38268 0.65328
vn 0.35355 0.38268 0.85355
vn 0.27060 0.70711 0.65328
vn 0.00000 0.70711 0.70711
vn 0.35355 0.38268 0.85355
vn 0.00000 0.38268 0.92388
vn 0.00000 0.70711 0.70711
vn -0.27060 0.70711 0.65328
vn 0.00000 0.38268 0.92388
vn -0.35355 0.38268 0.85355
vn -0.27060 0.70711 0.65328
vn -0.50000 0.70711 0.50000
vn -0.35355 0.38268 0.85355
vn -0.65328 0.38268 0.65328
vn -0.50000 0.70711 0.50000
vn -0.65328 0.70711 0.27060
vn -0.65328 0.38268 0.65328
vn -0.85355 0.38268 0.35355
vn -0.65328 0.70711 0.27060
vn -0.70711 0.70711 0.00000
vn -0.85355 0.38268 0.35355
vn -0.92388 0.38268 0.00000
vn -0.70711 0.70711 0.00000
vn -0.65328 0.70711 -0.27060
vn -0.92388 0.38268 0.00000
vn -0.85355 0.38268 -0.35355
vn -0.65328 0.70711 -0.27060
vn -0.50000 0.70711 -0.50000
vn -0.85355 0.38268 -0.35355
vn -0.65328 0.38268 -0.65328
vn -0.50000 0.70711 -0.50000
vn -0.27060 0.70711 -0.65328
vn -0.65328 0.38268 -0.65328
vn -0.35355 0.38268 -0.85355
vn -0.27060 0.70711 -0.65328
vn -0.00000 0.70711 -0.70711
vn -0.35355 0.38268 -0.85355
vn -0.00000 0.38268 -0.92388
vn -0.00000 0.70711 -0.70711
vn 0.27060 0.70711 -0.65328
vn -0.00000 0.38268 -0.92388
vn 0.35355 0.38268 -0.85355
vn 0.27060 0.70711 -0.65328
vn 0.50000 0.70711 -0.50000
vn 0.35355 0.38268 -0.85355
vn 0.65328 0.38268 -0.65328
vn 0.50000 0.70711 -0.50000
vn 0.65328 0.70711 -0.27060
vn 0.65328 0.38268 -0.65328
vn 0.85355 0.38268 -0.35355
vn 0.65328 0.70711 -0.27060
vn 0.70711 0.70711 -0.00000
vn 0.85355 0.38268 -0.35355
vn 0.92388 0.38268 -0.00000
vn 0.92388 0.38268 0.00000
vn 0.85355 0.38268 0.35355
vn 1.00000 0.00000 0.00000
vn 0.92388 0.00000 0.38268
vn 0.85355 0.38268 0.35355
vn 0.65328 0.38268 0.65328
vn 0.92388 0.00000 0.38268
vn 0.70711 0.00000 0.70711
vn 0.65328 0.38268 0.65328
vn 0.35355 0.38268 0.85355
vn 0.70711 0.00000 0.70711
vn 0.38268 0.00000 0.92388
vn 0.35355 0.38268 0.85355
vn 0.00000 0.38268 0.92388
vn 0.38268 0.00000 0.92388
vn 0.00000 0.00000 1.00000
vn 0.00000 0.38268 0.92388
vn -0.35355 0.38268 0.85355
vn 0.00000 0.00000 1.00000
vn -0.38268 0.00000 0.92388
vn -0.35355 0.38268 0.85355
vn -0.65328 0.38268 0.65328
vn -0.38268 0.00000 0.92388
vn -0.70711 0.00000 0.70711
vn -0.65328 0.38268 0.65328
vn -0.85355 0.38268 0.35355
vn -0.70711 0.00000 0.70711
vn -0.92388 0.00000 0.38268
vn -0.85355 0.38268 0.35355
vn -0.92388 0.38268 0.00000
vn -0.92388 0.00000 0.38268
vn -1.00000 0.00000 0.00000
vn -0.92388 0.38268 0.00000
vn -0.85355 0.38268 -0.35355
vn -1.00000 0.00000 0.00000
vn -0.92388 0.00000 -0.38268
vn -0.85355 0.38268 -0.35355
vn -0.65328 0.38268 -0.65328
vn -0.92388 0.00000 -0.38268
vn -0.70711 0.00000 -0.70711
vn -0.65328 0.38268 -0.65328
vn -0.35355 0.38268 -0.85355
vn -0.70711 0.00000 -0.70711
vn -0.38268 0.00000 -0.92388
vn -0.35355 0.38268 -0.85355
vn -0.00000 0.38268 -0.92388
vn -0.38268 0.00000 -0.92388
vn -0.00000 0.00000 -1.00000
vn -0.00000 0.38268 -0.92388
vn 0.35355 0.38268 -0.85355
vn -0.00000 0.00000 -1.00000
vn 0.38268 0.00000 -0.92388
vn 0.35355 0.38268 -0.85355
vn 0.65328 0.38268 -0.65328
vn 0.38268 0.00000 -0.92388
vn 0.70711 0.00000 -0.70711
vn 0.65328 0.38268 -0.65328
vn 0.85355 0.38268 -0.35355
vn 0.70711 0.00000 -0.70711
vn 0.92388 0.00000 -0.38268
vn 0.85355 0.38268 -0.35355
vn 0.92388 0.38268 -0.00000
vn 0.92388 0.00000 -0.38268
vn 1.00000 0.00000 -0.00000
vn 1.00000 0.00000 0.00000
vn 0.92388 0.00000 0.38268
vn 0.92388 -0.38268 0.00000
vn 0.85355 -0.38268 0.35355
vn 0.92388 0.00000 0.38268
vn 0.70711 0.00000 0.70711
vn 0.85355 -0.38268 0.35355
vn 0.65328 -0.38268 0.65328
vn 0.70711 0.00000 0.70711
vn 0.38268 0.00000 0.92388
vn 0.65328 -0.38268 0.65328
vn 0.35355 -0.38268 0.85355
vn 0.38268 0.00000 0.92388
vn 0.00000 0.00000 1.00000
vn 0.35355 -0.38268 0.85355
vn 0.00000 -0.38268 0.92388
vn 0.00000 0.00000 1.00000
vn -0.38268 0.00000 0.92388
vn 0.00000 -0.38268 0.92388
vn -0.35355 -0.38268 0.85355
vn -0.38268 0.00000 0.92388
vn -0.70711 0.00000 0.70711
vn -0.35355 -0.38268 0.85355
vn -0.65328 -0.38268 0.65328
vn -0.70711 0.00000 0.70711
vn -0.92388 0.00000 0.38268
vn -0.65328 -0.38268 0.65328
vn -0.85355 -0.38268 0.35355
vn -0.92388 0.00000 0.38268
vn -1.00000 0.00000 0.00000
vn -0.85355 -0.38268 0.35355
vn -0.92388 -0.38268 0.00000
vn -1.00000 0.00000 0.00000
vn -0.92388 0.00000 -0.38268
vn -0.92388 -0.38268 0.00000
vn -0.85355 -0.38268 -0.35355
vn -0.92388 0.00000 -0.38268
vn -0.70711 0.00000 -0.70711
vn -0.85355 -0.38268 -0.35355
vn -0.65328 -0.38268 -0.65328
vn -0.70711 0.00000 -0.70711
vn -0.38268 0.00000 -0.92388
vn -0.65328 -0.38268 -0.65328
vn -0.35355 -0.38268 -0.85355
vn -0.38268 0.00000 -0.92388
vn -0.00000 0.00000 -1.00000
vn -0.35355 -0.38268 -0.85355
vn -0.00000 -0.38268 -0.92388
vn -0.00000 0.00000 -1.00000
vn 0.38268 0.00000 -0.92388
vn -0.00000 -0.38268 -0.92388
vn 0.35355 -0.38268 -0.85355
vn 0.38268 0.00000 -0.92388
vn 0.70711 0.00000 -0.70711
vn 0.35355 -0.38268 -0.85355
vn 0.65328 -0.38268 -0.65328
vn 0.70711 0.00000 -0.70711
vn 0.92388 0.00000 -0.38268
vn 0.65328 -0.38268 -0.65328
vn 0.85355 -0.38268 -0.35355
vn 0.92388 0.00000 -0.38268
vn 1.00000 0.00000 -0.00000
vn 0.85355 -0.38268 -0.35355
vn 0.92388 -0.38268 -0.00000
vn 0.92388 -0.38268 0.00000
vn 0.85355 -0.38268 0.35355
vn 0.70711 -0.70711 0.00000
vn 0.65328 -0.70711 0.27060
vn 0.85355 -0.38268 0.35355
vn 0.65328 -0.38268 0.65328
vn 0.65328 -0.70711 0.27060
vn 0.50000 -0.70711 0.50000
vn 0.65328 -0.38268 0.65328
vn 0.35355 -0.38268 0.85355
vn 0.50000 -0.70711 0.50000
vn 0.27060 -0.70711 0.65328
vn 0.35355 -0.38268 0.85355
vn 0.00000 -0.38268 0.92388
vn 0.27060 -0.70711 0.65328
vn 0.00000 -0.70711 0.70711
vn 0.00000 -0.38268 0.92388
vn -0.35355 -0.38268 0.85355
vn 0.00000 -0.70711 0.70711
vn -0.27060 -0.70711 0.65328
vn -0.35355 -0.38268 0.85355
vn -0.65328 -0.38268 0.65328
vn -0.27060 -0.70711 0.65328
vn -0.50000 -0.70711 0.50000
vn -0.65328 -0.38268 0.65328
vn -0.85355 -0.38268 0.35355
vn -0.50000 -0.70711 0.50000
vn -0.65328 -0.70711 0.27060
vn -0.85355 -0.38268 0.35355
vn -0.92388 -0.38268 0.00000
vn -0.65328 -0.70711 0.27060
vn -0.70711 -0.70711 0.00000
vn -0.92388 -0.38268 0.00000
vn -0.85355 -0.38268 -0.35355
vn -0.70711 -0.70711 0.00000
vn -0.65328 -0.70711 -0.27060
vn -0.85355 -0.38268 -0.35355
vn -0.65328 -0.38268 -0.65328
vn -0.65328 -0.70711 -0.27060
vn -0.50000 -0.70711 -0.50000
vn -0.65328 -0.38268 -0.65328
vn -0.35355 -0.38268 -0.85355
vn -0.50000 -0.70711 -0.50000
vn -0.27060 -0.70711 -0.65328
vn -0.35355 -0.38268 -0.85355
vn -0.00000 -0.38268 -0.92388
vn -0.27060 -0.70711 -0.65328
vn -0.00000 -0.70711 -0.70711
vn -0.00000 -0.38268 -0.92388
vn 0.35355 -0.38268 -0.85355
vn -0.00000 -0.70711 -0.70711
vn 0.27060 -0.70711 -0.65328
vn 0.35355 -0.38268 -0.85355
vn 0.65328 -0.38268 -0.65328
vn 0.27060 -0.70711 -0.65328
vn 0.50000 -0.70711 -0.50000
vn 0.65328 -0.38268 -0.65328
vn 0.85355 -0.38268 -0.35355
vn 0.50000 -0.70711 -0.50000
vn 0.65328 -0.70711 -0.27060
vn 0.85355 -0.38268 -0.35355
vn 0.92388 -0.38268 -0.00000
vn 0.65328 -0.70711 -0.27060
vn 0.70711 -0.70711 -0.00000
vn 0.70711 -0.70711 0.00000
vn 0.65328 -0.70711 0.27060
vn 0.38268 -0.92388 0.00000
vn 0.35355 -0.92388 0.14645
vn 0.65328 -0.70711 0.27060
vn 0.50000 -0.70711 0.50000
vn 0.35355 -0.92388 0.14645
vn 0.27060 -0.92388 0.27060
vn 0.50000 -0.70711 0.50000
vn 0.27060 -0.70711 0.65328
vn 0.27060 -0.92388 0.27060
vn 0.14645 -0.92388 0.35355
vn 0.27060 -0.70711 0.65328
vn 0.00000 -0.70711 0.70711
vn 0.14645 -0.92388 0.35355
vn 0.00000 -0.92388 0.38268
vn 0.00000 -0.70711 0.70711
vn -0.27060 -0.70711 0.65328
vn 0.00000 -0.92388 0.38268
vn -0.14645 -0.92388 0.35355
vn -0.27060 -0.70711 0.65328
vn -0.50000 -0.70711 0.50000
vn -0.14645 -0.92388 0.35355
vn -0.27060 -0.92388 0.27060
vn -0.50000 -0.70711 0.50000
vn -0.65328 -0.70711 0.27060
vn -0.27060 -0.92388 0.27060
vn -0.35355 -0.92388 0.14645
vn -0.65328 -0.70711 0.27060
vn -0.70711 -0.70711 0.00000
vn -0.35355 -0.92388 0.14645
vn -0.38268 -0.92388 0.00000
vn -0.70711 -0.70711 0.00000
vn -0.65328 -0.70711 -0.27060
vn -0.38268 -0.92388 0.00000
vn -0.35355 -0.92388 -0.14645
vn -0.65328 -0.70711 -0.27060
vn -0.50000 -0.70711 -0.50000
vn -0.35355 -0.92388 -0.14645
vn -0.27060 -0.92388 -0.27060
vn -0.50000 -0.70711 -0.50000
vn -0.27060 -0.70711 -0.65328
vn -0.27060 -0.92388 -0.27060
vn -0.14645 -0.92388 -0.35355
vn -0.27060 -0.70711 -0.65328
vn -0.00000 -0.70711 -0.70711
vn -0.14645 -0.92388 -0.35355
vn -0.00000 -0.92388 -0.38268
vn -0.00000 -0.70711 -0.70711
vn 0.27060 -0.70711 -0.65328
vn -0.00000 -0.92388 -0.38268
vn 0.14645 -0.92388 -0.35355
vn 0.27060 -0.70711 -0.65328
vn 0.50000 -0.70711 -0.50000
vn 0.14645 -0.92388 -0.35355
vn 0.27060 -0.92388 -0.27060
vn 0.50000 -0.70711 -0.50000
vn 0.65328 -0.70711 -0.27060
vn 0.27060 -0.92388 -0.27060
vn 0.35355 -0.92388 -0.14645
vn 0.65328 -0.70711 -0.27060
vn 0.70711 -0.70711 -0.00000
vn 0.35355 -0.92388 -0.14645
vn 0.38268 -0.92388 -0.00000
vn 0.00000 -1.00000 0.00000
vn 0.38268 -0.92388 0.00000
vn 0.35355 -0.92388 0.14645
vn 0.00000 -1.00000 0.00000
vn 0.35355 -0.92388 0.14645
vn 0.27060 -0.92388 0.27060
vn 0.00000 -1.00000 0.00000
vn 0.27060 -0.92388 0.27060
vn 0.14645 -0.92388 0.35355
vn 0.00000 -1.00000 0.00000
vn 0.14645 -0.92388 0.35355
vn 0.00000 -0.92388 0.38268
vn -0.00000 -1.00000 0.00000
vn 0.00000 -0.92388 0.38268
vn -0.14645 -0.92388 0.35355
vn -0.00000 -1.00000 0.00000
vn -0.14645 -0.92388 0.35355
vn -0.27060 -0.92388 0.27060
vn -0.00000 -1.00000 0.00000
vn -0.27060 -0.92388 0.27060
vn -0.35355 -0.92388 0.14645
vn -0.00000 -1.00000 0.00000
vn -0.35355 -0.92388 0.14645
vn -0.38268 -0.92388 0.00000
vn -0.00000 -1.00000 -0.00000
vn -0.38268 -0.92388 0.00000
vn -0.35355 -0.92388 -0.14645
vn -0.00000 -1.00000 -0.00000
vn -0.35355 -0.92388 -0.14645
vn -0.27060 -0.92388 -0.27060
vn -0.00000 -1.00000 -0.00000
vn -0.27060 -0.92388 -0.27060
vn -0.14645 -0.92388 -0.35355
vn -0.00000 -1.00000 -0.00000
vn -0.14645 -0.92388 -0.35355
vn -0.00000 -0.92388 -0.38268
vn 0.00000 -1.00000 -0.00000
vn -0.00000 -0.92388 -0.38268
vn 0.14645 -0.92388 -0.35355
vn 0.00000 -1.00000 -0.00000
vn 0.14645 -0.92388 -0.35355
vn 0.27060 -0.92388 -0.27060
vn 0.00000 -1.00000 -0.00000
vn 0.27060 -0.92388 -0.27060
vn 0.35355 -0.92388 -0.14645
vn 0.00000 -1.00000 -0.00000
vn 0.35355 -0.92388 -0.14645
vn 0.38268 -0.92388 -0.00000
vn 0.00000 0.00000 -1.00000
vn 0.00000 0.00000 -1.00000
vn 0.00000 0.00000 -1.00000
vn 0.00000 0.00000 -1.00000
vn 0.00000 0.00000 1.00000
vn 0.00000 0.00000 1.00000
vn 0.00000 0.00000 1.00000
vn 0.00000 0.00000 1.00000
vn 0.02500 0.00000 0.00000
vn 0.01250 0.00000 0.02165
vn 0.01250 0.00000 0.02165
vn 0.02500 0.00000 0.00000
vn 0.01250 0.00000 0.02165
vn -0.01250 0.00000 0.02165
vn -0.01250 0.00000 0.02165
vn 0.01250 0.00000 0.02165
vn -0.01250 0.00000 0.02165
vn -0.02500 0.00000 0.00000
vn -0.02500 0.00000 0.00000
vn -0.01250 0.00000 0.02165
vn -0.02500 0.00000 0.00000
vn -0.01250 0.00000 -0.02165
vn -0.01250 0.00000 -0.02165
vn -0.02500 0.00000 0.00000
vn -0.01250 0.00000 -0.02165
vn 0.01250 0.00000 -0.02165
vn 0.01250 0.00000 -0.02165
vn -0.01250 0.00000 -0.02165
vn 0.01250 0.00000 -0.02165
vn 0.02500 0.00000 -0.00000
vn 0.02500 0.00000 -0.00000
vn 0.01250 0.00000 -0.02165
vn 0.00000 0.00000 -1.00000
vn 0.00000 0.00000 -1.00000
vn 0.00000 0.00000 -1.00000
vn 0.00000 0.00000 -1.00000
vn 0.00000 0.00000 1.00000
vn 0.00000 0.00000 1.00000
vn 0.00000 0.00000 1.00000
vn 0.00000 0.00000 1.00000
f 1/1/1 2/2/2 3/3/3
f 1/1/1 3/2/3 4/3/4
f 5/1/5 6/2/6 7/3/7
f 5/1/5 7/2/7 8/3/8
f 9/1/9 10/2/10 11/3/11
f 9/1/9 11/2/11 12/3/12
f 13/1/13 14/2/14 15/3/15
f 13/1/13 15/2/15 16/3/16
f 17/1/17 18/2/18 19/3/19
f 17/1/17 19/2/19 20/3/20
f 21/1/21 22/2/22 23/3/23
f 21/1/21 23/2/23 24/3/24
f 25/1/25 26/2/26 27/3/27
f 25/1/25 27/2/27 28/3/28
f 29/1/29 30/2/30 31/3/31
f 29/1/29 31/2/31 32/3/32
f 33/1/33 34/2/34 35/3/35
f 33/1/33 35/2/35 36/3/36
f 37/1/37 38/2/38 39/3/39
f 37/1/37 39/2/39 40/3/40
f 41/1/41 42/2/42 43/3/43
f 41/1/41 43/2/43 44/3/44
f 45/1/45 46/2/46 47/3/47
f 45/1/45 47/2/47 48/3/48
f 49/1/49 50/2/50 51/3/51
f 49/1/49 51/2/51 52/3/52
f 53/1/53 54/2/54 55/3/55
f 53/1/53 55/2/55 56/3/56
f 57/1/57 58/2/58 59/3/59
f 57/1/57 59/2/59 60/3/60
f 61/1/61 62/2/62 63/3/63
f 61/1/61 63/2/63 64/3/64
f 65/1/65 66/2/66 67/3/67
f 65/1/65 67/2/67 68/3/68
f 69/1/69 70/2/70 71/3/71
f 69/1/69 71/2/71 72/3/72
f 73/1/73 74/2/74 75/3/75
f 73/1/73 75/2/75 76/3/76
f 77/1/77 78/2/78 79/3/79
f 77/1/77 79/2/79 80/3/80
f 81/1/81 82/2/82 83/3/83
f 81/1/81 83/2/83 84/3/84
f 85/1/85 86/2/86 87/3/87
f 85/1/85 87/2/87 88/3/88
f 89/1/89 90/2/90 91/3/91
f 89/1/89 91/2/91 92/3/92
f 93/1/93 94/2/94 95/3/95
f 93/1/93 95/2/95 96/3/96
f 97/1/97 98/2/98 99/3/99
f 97/1/97 99/2/99 100/3/100
f 101/1/101 102/2/102 103/3/103
f 101/1/101 103/2/103 104/3/104
f 105/1/105 106/2/106 107/3/107
f 105/1/105 107/2/107 108/3/108
f 109/1/109 110/2/110 111/3/111
f 109/1/109 111/2/111 112/3/112
f 113/1/113 114/2/114 115/3/115
f 113/1/113 115/2/115 116/3/116
f 117/1/117 118/2/118 119/3/119
f 117/1/117 119/2/119 120/3/120
f 121/1/121 122/2/122 123/3/123
f 121/1/121 123/2/123 124/3/124
f 125/1/125 126/2/126 127/3/127
f 125/1/125 127/2/127 128/3/128
f 129/1/129 130/2/130 131/3/131
f 129/1/129 131/2/131 132/3/132
f 133/1/133 134/2/134 135/3/135
f 133/1/133 135/2/135 136/3/136
f 137/1/137 138/2/138 139/3/139
f 137/1/137 139/2/139 140/3/140
f 141/1/141 142/2/142 143/3/143
f 141/1/141 143/2/143 144/3/144
f 145/1/145 146/2/146 147/3/147
f 145/1/145 147/2/147 148/3/148
f 149/1/149 150/2/150 151/3/151
f 149/1/149 151/2/151 152/3/152
f 153/1/153 154/2/154 155/3/155
f 153/1/153 155/2/155 156/3/156
f 157/1/157 158/2/158 159/3/159
f 157/1/157 159/2/159 160/3/160
f 161/1/161 162/2/162 163/3/163
f 161/1/161 163/2/163 164/3/164
f 165/1/165 166/2/166 167/3/167
f 165/1/165 167/2/167 168/3/168
f 169/1/169 170/2/170 171/3/171
f 169/1/169 171/2/171 172/3/172
f 173/1/173 174/2/174 175/3/175
f 173/1/173 175/2/175 176/3/176
f 177/1/177 178/2/178 179/3/179
f 177/1/177 179/2/179 180/3/180
f 181/1/181 182/2/182 183/3/183
f 181/1/181 183/2/183 184/3/184
f 185/1/185 186/2/186 187/3/187
f 185/1/185 187/2/187 188/3/188
f 189/1/189 190/2/190 191/3/191
f 189/1/189 191/2/191 192/3/192
f 193/1/193 194/2/194 195/3/195
f 193/1/193 195/2/195 196/3/196
f 197/1/197 198/2/198 199/3/199
f 197/1/197 199/2/199 200/3/200
f 201/1/201 202/2/202 203/3/203
f 201/1/201 203/2/203 204/3/204
f 205/1/205 206/2/206 207/3/207
f 205/1/205 207/2/207 208/3/208
f 209/1/209 210/2/210 211/3/211
f 209/1/209 211/2/211 212/3/212
f 213/1/213 214/2/214 215/3/215
f 213/1/213 215/2/215 216/3/216
f 217/1/217 218/2/218 219/3/219
f 217/1/217 219/2/219 220/3/220
f 221/1/221 222/2/222 223/3/223
f 221/1/221 223/2/223 224/3/224
f 225/1/225 226/2/226 227/3/227
f 225/1/225 227/2/227 228/3/228
f 229/1/229 230/2/230 231/3/231
f 229/1/229 231/2/231 232/3/232
f 233/1/233 234/2/234 235/3/235
f 233/1/233 235/2/235 236/3/236
f 237/1/237 238/2/238 239/3/239
f 237/1/237 239/2/239 240/3/240
f 241/1/241 242/2/242 243/3/243
f 241/1/241 243/2/243 244/3/244
f 245/1/245 246/2/246 247/3/247
f 245/1/245 247/2/247 248/3/248
f 249/1/249 250/2/250 251/3/251
f 249/1/249 251/2/251 252/3/252
f 253/1/253 254/2/254 255/3/255
f 253/1/253 255/2/255 256/3/256
f 257/1/257 258/2/258 259/3/259
f 257/1/257 259/2/259 260/3/260
f 261/1/261 262/2/262 263/3/263
f 261/1/261 263/2/263 264/3/264
f 265/1/265 266/2/266 267/3/267
f 265/1/265 267/2/267 268/3/268
f 269/1/269 270/2/270 271/3/271
f 269/1/269 271/2/271 272/3/272
f 273/1/273 274/2/274 275/3/275
f 276/1/276 277/2/277 278/3/278
f 279/1/279 280/2/280 281/3/281
f 282/1/282 283/2/283 284/3/284
f 285/1/285 286/2/286 287/3/287
f 288/1/288 289/2/289 290/3/290
f 291/1/291 292/2/292 293/3/293
f 294/1/294 295/2/295 296/3/296
f 297/1/297 298/2/298 299/3/299
f 300/1/300 301/2/301 302/3/302
f 303/1/303 304/2/304 305/3/305
f 306/1/306 307/2/307 308/3/308
f 309/1/309 310/2/310 311/3/311
f 312/1/312 313/2/313 314/3/314
f 315/1/315 316/2/316 317/3/317
f 318/1/318 319/2/319 320/3/320
f 321/1/321 323/2/323 324/3/324
f 321/1/321 324/2/324 322/3/322
f 325/1/325 327/2/327 328/3/328
f 325/1/325 328/2/328 326/3/326
f 329/1/329 331/2/331 332/3/332
f 329/1/329 332/2/332 330/3/330
f 333/1/333 335/2/335 336/3/336
f 333/1/333 336/2/336 334/3/334
f 337/1/337 339/2/339 340/3/340
f 337/1/337 340/2/340 338/3/338
f 341/1/341 343/2/343 344/3/344
f 341/1/341 344/2/344 342/3/342
f 345/1/345 347/2/347 348/3/348
f 345/1/345 348/2/348 346/3/346
f 349/1/349 351/2/351 352/3/352
f 349/1/349 352/2/352 350/3/350
f 353/1/353 355/2/355 356/3/356
f 353/1/353 356/2/356 354/3/354
f 357/1/357 359/2/359 360/3/360
f 357/1/357 360/2/360 358/3/358
f 361/1/361 363/2/363 364/3/364
f 361/1/361 364/2/364 362/3/362
f 365/1/365 367/2/367 368/3/368
f 365/1/365 368/2/368 366/3/366
f 369/1/369 371/2/371 372/3/372
f 369/1/369 372/2/372 370/3/370
f 373/1/373 375/2/375 376/3/376
f 373/1/373 376/2/376 374/3/374
f 377/1/377 379/2/379 380/3/380
f 377/1/377 380/2/380 378/3/378
f 381/1/381 383/2/383 384/3/384
f 381/1/381 384/2/384 382/3/382
f 385/1/385 387/2/387 388/3/388
f 385/1/385 388/2/388 386/3/386
f 389/1/389 391/2/391 392/3/392
f 389/1/389 392/2/392 390/3/390
f 393/1/393 395/2/395 396/3/396
f 393/1/393 396/2/396 394/3/394
f 397/1/397 399/2/399 400/3/400
f 397/1/397 400/2/400 398/3/398
f 401/1/401 403/2/403 404/3/404
f 401/1/401 404/2/404 402/3/402
f 405/1/405 407/2/407 408/3/408
f 405/1/405 408/2/408 406/3/406
f 409/1/409 411/2/411 412/3/412
f 409/1/409 412/2/412 410/3/410
f 413/1/413 415/2/415 416/3/416
f 413/1/413 416/2/416 414/3/414
f 417/1/417 419/2/419 420/3/420
f 417/1/417 420/2/420 418/3/418
f 421/1/421 423/2/423 424/3/424
f 421/1/421 424/2/424 422/3/422
f 425/1/425 427/2/427 428/3/428
f 425/1/425 428/2/428 426/3/426
f 429/1/429 431/2/431 432/3/432
f 429/1/429 432/2/432 430/3/430
f 433/1/433 435/2/435 436/3/436
f 433/1/433 436/2/436 434/3/434
f 437/1/437 439/2/439 440/3/440
f 437/1/437 440/2/440 438/3/438
f 441/1/441 443/2/443 444/3/444
f 441/1/441 444/2/444 442/3/442
f 445/1/445 447/2/447 448/3/448
f 445/1/445 448/2/448 446/3/446
f 449/1/449 451/2/451 452/3/452
f 449/1/449 452/2/452 450/3/450
f 453/1/453 455/2/455 456/3/456
f 453/1/453 456/2/456 454/3/454
f 457/1/457 459/2/459 460/3/460
f 457/1/457 460/2/460 458/3/458
f 461/1/461 463/2/463 464/3/464
f 461/1/461 464/2/464 462/3/462
f 465/1/465 467/2/467 468/3/468
f 465/1/465 468/2/468 466/3/466
f 469/1/469 471/2/471 472/3/472
f 469/1/469 472/2/472 470/3/470
f 473/1/473 475/2/475 476/3/476
f 473/1/473 476/2/476 474/3/474
f 477/1/477 479/2/479 480/3/480
f 477/1/477 480/2/480 478/3/478
f 481/1/481 483/2/483 484/3/484
f 481/1/481 484/2/484 482/3/482
f 485/1/485 487/2/487 488/3/488
f 485/1/485 488/2/488 486/3/486
f 489/1/489 491/2/491 492/3/492
f 489/1/489 492/2/492 490/3/490
f 493/1/493 495/2/495 496/3/496
f 493/1/493 496/2/496 494/3/494
f 497/1/497 499/2/499 500/3/500
f 497/1/497 500/2/500 498/3/498
f 501/1/501 503/2/503 504/3/504
f 501/1/501 504/2/504 502/3/502
f 505/1/505 507/2/507 508/3/508
f 505/1/505 508/2/508 506/3/506
f 509/1/509 511/2/511 512/3/512
f 509/1/509 512/2/512 510/3/510
f 513/1/513 515/2/515 516/3/516
f 513/1/513 516/2/516 514/3/514
f 517/1/517 519/2/519 520/3/520
f 517/1/517 520/2/520 518/3/518
f 521/1/521 523/2/523 524/3/524
f 521/1/521 524/2/524 522/3/522
f 525/1/525 527/2/527 528/3/528
f 525/1/525 528/2/528 526/3/526
f 529/1/529 531/2/531 532/3/532
f 529/1/529 532/2/532 530/3/530
f 533/1/533 535/2/535 536/3/536
f 533/1/533 536/2/536 534/3/534
f 537/1/537 539/2/539 540/3/540
f 537/1/537 540/2/540 538/3/538
f 541/1/541 543/2/543 544/3/544
f 541/1/541 544/2/544 542/3/542
f 545/1/545 547/2/547 548/3/548
f 545/1/545 548/2/548 546/3/546
f 549/1/549 551/2/551 552/3/552
f 549/1/549 552/2/552 550/3/550
f 553/1/553 555/2/555 556/3/556
f 553/1/553 556/2/556 554/3/554
f 557/1/557 559/2/559 560/3/560
f 557/1/557 560/2/560 558/3/558
f 561/1/561 563/2/563 564/3/564
f 561/1/561 564/2/564 562/3/562
f 565/1/565 567/2/567 568/3/568
f 565/1/565 568/2/568 566/3/566
f 569/1/569 571/2/571 572/3/572
f 569/1/569 572/2/572 570/3/570
f 573/1/573 575/2/575 576/3/576
f 573/1/573 576/2/576 574/3/574
f 577/1/577 579/2/579 580/3/580
f 577/1/577 580/2/580 578/3/578
f 581/1/581 583/2/583 584/3/584
f 581/1/581 584/2/584 582/3/582
f 585/1/585 587/2/587 588/3/588
f 585/1/585 588/2/588 586/3/586
f 589/1/589 591/2/591 592/3/592
f 589/1/589 592/2/592 590/3/590
f 593/1/593 595/2/595 596/3/596
f 593/1/593 596/2/596 594/3/594
f 597/1/597 599/2/599 600/3/600
f 597/1/597 600/2/600 598/3/598
f 601/1/601 603/2/603 604/3/604
f 601/1/601 604/2/604 602/3/602
f 605/1/605 607/2/607 608/3/608
f 605/1/605 608/2/608 606/3/606
f 609/1/609 611/2/611 612/3/612
f 609/1/609 612/2/612 610/3/610
f 613/1/613 615/2/615 616/3/616
f 613/1/613 616/2/616 614/3/614
f 617/1/617 619/2/619 620/3/620
f 617/1/617 620/2/620 618/3/618
f 621/1/621 623/2/623 624/3/624
f 621/1/621 624/2/624 622/3/622
f 625/1/625 627/2/627 628/3/628
f 625/1/625 628/2/628 626/3/626
f 629/1/629 631/2/631 632/3/632
f 629/1/629 632/2/632 630/3/630
f 633/1/633 635/2/635 636/3/636
f 633/1/633 636/2/636 634/3/634
f 637/1/637 639/2/639 640/3/640
f 637/1/637 640/2/640 638/3/638
f 641/1/641 643/2/643 644/3/644
f 641/1/641 644/2/644 642/3/642
f 645/1/645 647/2/647 648/3/648
f 645/1/645 648/2/648 646/3/646
f 649/1/649 651/2/651 652/3/652
f 649/1/649 652/2/652 650/3/650
f 653/1/653 655/2/655 656/3/656
f 653/1/653 656/2/656 654/3/654
f 657/1/657 659/2/659 660/3/660
f 657/1/657 660/2/660 658/3/658
f 661/1/661 663/2/663 664/3/664
f 661/1/661 664/2/664 662/3/662
f 665/1/665 667/2/667 668/3/668
f 665/1/665 668/2/668 666/3/666
f 669/1/669 671/2/671 672/3/672
f 669/1/669 672/2/672 670/3/670
f 673/1/673 675/2/675 676/3/676
f 673/1/673 676/2/676 674/3/674
f 677/1/677 679/2/679 680/3/680
f 677/1/677 680/2/680 678/3/678
f 681/1/681 683/2/683 684/3/684
f 681/1/681 684/2/684 682/3/682
f 685/1/685 687/2/687 688/3/688
f 685/1/685 688/2/688 686/3/686
f 689/1/689 691/2/691 692/3/692
f 689/1/689 692/2/692 690/3/690
f 693/1/693 695/2/695 696/3/696
f 693/1/693 696/2/696 694/3/694
f 697/1/697 699/2/699 700/3/700
f 697/1/697 700/2/700 698/3/698
f 701/1/701 703/2/703 704/3/704
f 701/1/701 704/2/704 702/3/702
f 705/1/705 707/2/707 706/3/706
f 708/1/708 710/2/710 709/3/709
f 711/1/711 713/2/713 712/3/712
f 714/1/714 716/2/716 715/3/715
f 717/1/717 719/2/719 718/3/718
f 720/1/720 722/2/722 721/3/721
f 723/1/723 725/2/725 724/3/724
f 726/1/726 728/2/728 727/3/727
f 729/1/729 731/2/731 730/3/730
f 732/1/732 734/2/734 733/3/733
f 735/1/735 737/2/737 736/3/736
f 738/1/738 740/2/740 739/3/739
f 741/1/741 743/2/743 742/3/742
f 744/1/744 746/2/746 745/3/745
f 747/1/747 749/2/749 748/3/748
f 750/1/750 752/2/752 751/3/751
f 753/1/753 754/2/754 755/3/755
f 753/1/753 755/2/755 756/3/756
f 757/1/757 758/2/758 759/3/759
f 757/1/757 759/2/759 760/3/760
f 753/1/753 754/2/754 758/3/758
f 753/1/753 758/2/758 757/3/757
f 755/1/755 756/2/756 760/3/760
f 755/1/755 760/2/760 759/3/759
f 754/1/754 755/2/755 759/3/759
f 754/1/754 759/2/759 758/3/758
f 753/1/753 756/2/756 760/3/760
f 753/1/753 760/2/760 757/3/757
f 761/1/761 762/2/762 763/3/763
f 761/1/761 763/2/763 764/3/764
f 765/1/765 766/2/766 767/3/767
f 765/1/765 767/2/767 768/3/768
f 769/1/769 770/2/770 771/3/771
f 769/1/769 771/2/771 772/3/772
f 773/1/773 774/2/774 775/3/775
f 773/1/773 775/2/775 776/3/776
f 777/1/777 778/2/778 779/3/779
f 777/1/777 779/2/779 780/3/780
f 781/1/781 782/2/782 783/3/783
f 781/1/781 783/2/783 784/3/784
f 785/1/785 786/2/786 787/3/787
f 785/1/785 787/2/787 788/3/788
f 789/1/789 790/2/790 791/3/791
f 789/1/789 791/2/791 792/3/792
f 785/1/785 786/2/786 790/3/790
f 785/1/785 790/2/790 789/3/789
f 787/1/787 788/2/788 792/3/792
f 787/1/787 792/2/792 791/3/791
f 786/1/786 787/2/787 791/3/791
f 786/1/786 791/2/791 790/3/790
f 785/1/785 788/2/788 792/3/792
f 785/1/785 792/2/792 789/3/789
